<?xml version="1.0" encoding="utf-8"?>
<svg xmlns="http://www.w3.org/2000/svg" xmlns:xlink="http://www.w3.org/1999/xlink">
    <symbol fill="none" viewBox="0 0 80 80" id="12" xmlns="http://www.w3.org/2000/svg">
        <path d="M28.025 49v-1.765h3.963V33.723l-3.126 2.017L28 34.202l4.554-2.975h1.452v16.008h3.717V49h-9.698zm13.922 0v-1.563l5.933-6.555c.837-.94 1.436-1.798 1.797-2.571a5.347 5.347 0 00.566-2.37c0-2.067-1.173-3.1-3.52-3.1-1.756 0-3.307.672-4.652 2.016l-.764-1.613c.64-.673 1.453-1.21 2.438-1.614a8.06 8.06 0 013.15-.63c1.74 0 3.07.42 3.988 1.26.935.824 1.403 2 1.403 3.53 0 1.059-.254 2.1-.763 3.126-.509 1.008-1.288 2.084-2.338 3.227l-4.653 5.092H53V49H41.947z"
              fill="currentColor"/>
        <circle cx="40" cy="40" r="28" stroke="currentColor" stroke-width="2"/>
    </symbol>
    <symbol fill="none" viewBox="0 0 144 30" id="alwa" xmlns="http://www.w3.org/2000/svg">
        <g clip-path="url(#abprefix__clip0_317_1014)" fill-rule="evenodd" clip-rule="evenodd" fill="currentColor">
            <path d="M61.55.19c.26.557 1.585 3.053 1.795 3.44 1.254 2.318 5.743 10.45 6.54 11.848.378.66 1.52 2.7 2.538 4.53 2.248 4.043 3.49 5.835 4.862 7.016 2.263 1.948 4.975 2.734 7.85 2.976 0-.123-1.9-3.602-2.42-4.444-.24-.39-1.472-2.613-2.746-4.9a2759.669 2759.669 0 00-3.51-6.288c-.657-1.17-1.815-3.25-2.574-4.622-3.164-5.726-4.527-7.21-8.585-8.725C63.837.476 62.8.26 61.55.19zm50.696.143c-2.143.365-4.815 1.737-6.498 3.337-1.605 1.527-2.792 3.33-5.632 8.55-1.563 2.872-2.031 3.95-2.524 4.97-.82-5.159-7.492-7.089-7.453-12.345.009-1.226.116-1.954.408-2.767.301-.838.487-1.248.622-1.603-.297.12-.609.32-1.045.684-1.847 1.542-3.825 5.045-4.347 7.7-.344 1.75-.356 4.152-.029 5.51.135.559.508 1.682.83 2.496.638 1.615.73 3.76.435 5.444-.202-.593-.999-2.314-2.548-3.309.231.43 1.228 2.112 1.228 3.824 0 1.095-.06 2.03-.407 3.353.682-.374 1.49-.866 2.083-1.436 2.895-2.782 2.12-7.319 1.454-10.866 3.888 2.355 5.991 7.058 4.751 11.497-.5 1.791-1.446 3.493-2.236 4.543 1.28-.334 1.598-.377 2.99-1.05 4.75-2.295 7.628-6.918 10.048-11.353 2.14-3.923 4.453-7.758 6.524-11.718.711-1.357 2.543-4.36 3.378-5.794-.65.076-.725.11-2.032.333zm-96.11 1.384C14.012 5.337 2.166 26.025.737 28.607c-.324.587-.51.886-.737 1.374 5.347 0 6.934-2.167 9.637-4.394 3.1-2.553 6.217-3.716 10.617-3.467 7.115.401 9.938 7.865 18.68 7.865-.466-.864-1.342-2.368-2.985-5.21-.944-1.632-4.488-7.811-7.875-13.73C24.688 5.125 21.82.22 21.7.145c-.12-.077-1.194-.14-2.388-.142L17.142 0l-1.006 1.717zm9.451 18.421c-2.09 0-10.455.088-12.457.088 2.265-3.797 3.753-6.489 6.396-10.658 1.395 1.802 4.702 8.109 6.061 10.57zm95.611-18.421c-2.124 3.62-13.97 24.308-15.398 26.89-.325.587-.511.886-.738 1.374 5.347 0 6.935-2.167 9.638-4.394 3.1-2.553 6.216-3.716 10.616-3.467 7.115.401 9.938 7.865 18.681 7.865-.466-.864-1.342-2.368-2.985-5.21a5398.47 5398.47 0 01-7.875-13.73c-3.387-5.92-6.256-10.824-6.376-10.9-.12-.077-1.194-.14-2.387-.142L122.205 0l-1.007 1.717zm9.452 18.421c-2.091 0-10.455.088-12.457.088 2.265-3.797 3.752-6.489 6.395-10.658 1.396 1.802 4.702 8.109 6.062 10.57zM41.344.007c-.088 1.49.041 24.287.139 24.732 0 2.359 2.285 5.245 4.521 5.245h7.941c7.543 0 9.059-.076 11.209-2.185 1.36-1.749 1.406-2.555 1.754-4.323h-6.977c-6.596 0-6.8.012-7.807.42-1.257.507-2.948 1.77-4.206 3.947 0-7.371-.064-14.739-.014-22.11 0-3.773-5.692-5.725-6.56-5.726z"/>
        </g>
        <defs>
            <clipPath id="abprefix__clip0_317_1014">
                <path fill="#fff" d="M0 0h144v30H0z"/>
            </clipPath>
        </defs>
    </symbol>
    <symbol fill="none" viewBox="0 0 12 7" id="arrow-down" xmlns="http://www.w3.org/2000/svg">
        <path d="M1 1l5 5 5-5" stroke="#000"/>
    </symbol>
    <symbol fill="none" viewBox="0 0 12 7" id="arrow-drop" xmlns="http://www.w3.org/2000/svg">
        <path d="M1 6l5-5 5 5" stroke="currentColor"/>
    </symbol>
    <symbol fill="none" viewBox="0 0 32 22" id="arrow-left" xmlns="http://www.w3.org/2000/svg">
        <path d="M.195 10.529l10-10a.666.666 0 11.943.942l-8.862 8.862h29.057a.666.666 0 110 1.334H2.276l8.862 8.862a.666.666 0 11-.943.942l-10-10a.666.666 0 010-.942z"
              fill="#CCC"/>
    </symbol>
    <symbol fill="none" viewBox="0 0 32 22" id="arrow-right" xmlns="http://www.w3.org/2000/svg">
        <path d="M31.805 10.529l-10-10a.666.666 0 10-.943.942l8.862 8.862H.667a.666.666 0 100 1.334h29.057l-8.862 8.862a.666.666 0 10.943.942l10-10a.667.667 0 000-.942z"
              fill="currentColor"/>
    </symbol>
    <symbol fill="none" viewBox="0 0 13 14" id="arrow-toggle" xmlns="http://www.w3.org/2000/svg">
        <path d="M10.133 5.534a.542.542 0 010 .766l-3.25 3.25a.542.542 0 01-.766 0L2.867 6.3a.542.542 0 11.766-.766L6.5 8.4l2.867-2.867a.542.542 0 01.766 0z"
              fill="currentColor"/>
    </symbol>
    <symbol fill="none" viewBox="0 0 24 24" id="bag" xmlns="http://www.w3.org/2000/svg">
        <path d="M20.25 6.75H3.75A.75.75 0 003 7.5v12c0 .414.336.75.75.75h16.5a.75.75 0 00.75-.75v-12a.75.75 0 00-.75-.75z"
              stroke="currentColor" stroke-linecap="round" stroke-linejoin="round"/>
        <path d="M8.25 9.75v-3a3.75 3.75 0 017.5 0v3" stroke="currentColor" stroke-linecap="round"
              stroke-linejoin="round"/>
    </symbol>
    <symbol viewBox="0 0 90 90" id="basic" xmlns="http://www.w3.org/2000/svg">
        <path fill-rule="evenodd" clip-rule="evenodd"
              d="M34.767 11.033c.692 6.781 5.339 10.901 10.213 10.959h.025c4.871-.057 9.516-4.177 10.215-10.953l6.995 2.229c4.129 1.313 5.937 3.151 9.151 6.12l12.203 11.255-8.744 10.699-5.699-5.245v-6.875c.095-1.855-2.739-1.855-2.645 0v50.235l-42.979-.011V29.221a1.317 1.317 0 00-1.344-1.344 1.315 1.315 0 00-1.303 1.344v6.875l-5.692 5.235-8.745-10.692 12.197-11.251c3.22-2.969 5.027-4.812 9.157-6.125l6.995-2.23zm2.629-.166c2.521.537 4.985.787 7.605.772 2.613.02 5.067-.229 7.583-.761-.583 5.636-4.197 8.417-7.593 8.464-3.396-.047-7.011-2.829-7.595-8.475zm16.626-2.99a1.325 1.325 0 00-.697.188c-2.771.708-5.38.948-8.371.943-2.989 0-5.645-.251-8.495-.995a1.235 1.235 0 00-.495-.089 1.352 1.352 0 00-.572.141l-8.417 2.677c-4.62 1.468-6.969 3.76-10.151 6.697l-13.12 12.1a1.32 1.32 0 00-.131 1.813l10.423 12.744a1.323 1.323 0 001.927.141l4.932-4.543v41.073a1.32 1.32 0 001.328 1.328h45.62c.729 0 1.323-.593 1.323-1.323V39.691l4.937 4.547c.563.52 1.443.453 1.928-.141l10.421-12.744a1.327 1.327 0 00-.135-1.808l-13.114-12.1c-3.188-2.932-5.532-5.235-10.152-6.703l-8.249-2.62a1.328 1.328 0 00-.74-.245z"/>
    </symbol>
    <symbol fill="none" viewBox="0 0 184 12" id="basmanov" xmlns="http://www.w3.org/2000/svg">
        <path d="M9.752 8.746c0 2.005-1.467 3.151-4.382 3.151H0V.103h5.038c2.601 0 4.096 1.11 4.096 3.03 0 1.352-.72 2.238-1.78 2.676 1.494.345 2.398 1.333 2.398 2.937zM1.236 1.128v4.28h3.719c1.863 0 2.952-.727 2.952-2.135s-1.08-2.135-2.952-2.135H1.236v-.01zm7.28 7.515c0-1.529-1.117-2.21-3.165-2.21H1.236v4.43h4.115c2.048.009 3.165-.662 3.165-2.22zm18.222 1.818l.48-.96c.83.83 2.316 1.436 3.847 1.436 2.187 0 3.137-.923 3.137-2.089 0-3.235-7.187-1.25-7.187-5.613 0-1.734 1.338-3.235 4.3-3.235 1.319 0 2.684.392 3.616 1.044l-.415.998c-.996-.653-2.168-.98-3.201-.98-2.132 0-3.082.961-3.082 2.136 0 3.235 7.187 1.277 7.187 5.576 0 1.734-1.365 3.216-4.355 3.216-1.743.01-3.46-.615-4.327-1.529zM51.898.103v11.794h-1.18V2.462l-4.586 7.934h-.581l-4.586-7.888v9.38h-1.18V.103h1.014l5.065 8.746 5.02-8.746h1.014zm28.842 0v11.794h-1.015l-7.501-9.566v9.566h-1.237V.103h1.015l7.52 9.566V.103h1.218zm4.438 5.902c0-3.44 2.602-5.995 6.135-5.995 3.497 0 6.117 2.545 6.117 5.995S94.81 12 91.313 12c-3.534 0-6.135-2.564-6.135-5.995zm11.025 0c0-2.816-2.085-4.886-4.88-4.886-2.815 0-4.918 2.07-4.918 4.886 0 2.816 2.103 4.885 4.917 4.885 2.796 0 4.881-2.079 4.881-4.885zm15.02-5.902l-5.167 11.794h-1.217L99.672.103h1.338l4.465 10.237L109.978.103h1.245zm-92.299 0h-1.218l-5.333 11.794h1.283l1.402-3.151.443-1.007 2.804-6.34 2.796 6.34.452 1.007 1.403 3.151h1.3L18.924.103zm43.132 0H60.84l-5.333 11.794h1.282l1.403-3.151.443-1.007 2.804-6.34 2.805 6.34.443 1.007 1.402 3.151h1.301L62.057.103zm59.796-.037h1.928c1.513 0 2.537.988 2.537 2.396s-1.024 2.396-2.537 2.396h-1.928V.066zm1.909 4.354c1.264 0 2.076-.811 2.076-1.958 0-1.147-.812-1.958-2.076-1.958h-1.402V4.42h1.402zm4.355-4.354h.498v4.792h-.498V.066zm6.061 2.396h.48v1.827c-.443.401-1.079.606-1.744.606-1.439 0-2.5-1.035-2.5-2.433 0-1.399 1.052-2.434 2.51-2.434.719 0 1.337.233 1.762.69l-.314.327c-.397-.401-.876-.56-1.43-.56-1.172 0-2.03.84-2.03 1.986 0 1.138.858 1.986 2.03 1.986.452 0 .877-.102 1.236-.373V2.462zm2.566-2.396h.498v4.792h-.498V.066zm3.644.438h-1.67V.066h3.829v.438h-1.67v4.354h-.498V.504h.009zm6.375 3.076h-2.639l-.572 1.278h-.526l2.169-4.792h.498l2.168 4.792h-.526l-.572-1.277zm-.184-.41L145.443.598l-1.135 2.574h2.27zm2.74-3.104h.499V4.42h2.657v.438h-3.156V.066zm10.444 2.396h.48v1.827c-.443.401-1.079.606-1.744.606-1.439 0-2.5-1.035-2.5-2.433 0-1.399 1.052-2.434 2.51-2.434.719 0 1.337.233 1.762.69l-.314.327c-.397-.401-.876-.56-1.43-.56-1.172 0-2.03.84-2.03 1.986 0 1.138.858 1.986 2.03 1.986.452 0 .877-.102 1.236-.373V2.462zm5.813 2.396l-1.08-1.538c-.12.009-.239.018-.378.018h-1.273v1.52h-.498V.066h1.771c1.209 0 1.938.615 1.938 1.64 0 .756-.397 1.278-1.08 1.502l1.153 1.64h-.553v.01zm-.028-3.151c0-.765-.498-1.203-1.448-1.203h-1.264v2.405h1.264c.941 0 1.448-.447 1.448-1.202zm1.937.755c0-1.399 1.052-2.434 2.491-2.434 1.421 0 2.482 1.035 2.482 2.434 0 1.398-1.061 2.433-2.482 2.433-1.439 0-2.491-1.035-2.491-2.433zm4.475 0c0-1.147-.849-1.986-1.984-1.986-1.144 0-2.002.839-2.002 1.986s.849 1.986 2.002 1.986c1.135 0 1.984-.84 1.984-1.986zm2.261.354V.066h.498v2.722c0 1.138.526 1.66 1.448 1.66.932 0 1.458-.522 1.458-1.66V.066h.489v2.74c0 1.38-.729 2.09-1.947 2.09-1.217 0-1.946-.71-1.946-2.08zM184 1.707c0 1.016-.729 1.631-1.938 1.631h-1.273v1.51h-.498V.067h1.771c1.209 0 1.938.615 1.938 1.64zm-.498 0c0-.765-.498-1.203-1.449-1.203h-1.264V2.9h1.264c.951 0 1.449-.438 1.449-1.193z"
              opacity=".3" fill="#000"/>
    </symbol>
    <symbol fill="none" viewBox="0 0 32 32" id="bell" xmlns="http://www.w3.org/2000/svg">
        <path d="M30.75 27.25H21v-2.5h9.75a1.25 1.25 0 100-2.5c-.69 0-1.25-.56-1.25-1.25 0-7.192-5.278-13.062-12.25-13.693V4.75h1.25a1.25 1.25 0 100-2.5h-5a1.25 1.25 0 100 2.5h1.25v2.557C7.785 7.937 2.5 13.802 2.5 21c0 .69-.56 1.25-1.25 1.25a1.25 1.25 0 100 2.5H11v2.5H1.25a1.25 1.25 0 100 2.5h29.5a1.25 1.25 0 100-2.5zM5 21C5 14.692 9.832 9.75 16 9.75S27 14.692 27 21c0 .438.076.859.215 1.25H4.785C4.924 21.859 5 21.438 5 21zm8.5 3.75h5v2.5h-5v-2.5z"
              fill="#000"/>
    </symbol>
    <symbol fill="none" viewBox="0 0 33 33" id="book" xmlns="http://www.w3.org/2000/svg">
        <g clip-path="url(#alclip0_294_6541)" fill="#000">
            <path d="M5.732 29.483a1 1 0 01-1-1V5.108A4.13 4.13 0 018.857.983h17.875a1 1 0 011 1v23a1 1 0 01-2 0v-22H8.857a2.127 2.127 0 00-2.125 2.125v23.375a1 1 0 01-1 1z"/>
            <path d="M26.732 32.983h-17.5a4.505 4.505 0 01-4.5-4.5c0-2.48 2.02-4.5 4.5-4.5h17.5a1 1 0 110 2h-17.5a2.503 2.503 0 00-2.5 2.5c0 1.379 1.122 2.5 2.5 2.5h17.5a1 1 0 110 2z"/>
            <path d="M26.732 29.483h-17.5a1 1 0 010-2h17.5a1 1 0 110 2zm-16.5-3.5a1 1 0 01-1-1v-23a1 1 0 012 0v23a1 1 0 01-1 1z"/>
        </g>
        <defs>
            <clipPath id="alclip0_294_6541">
                <path fill="#fff" transform="translate(.232 .983)" d="M0 0h32v32H0z"/>
            </clipPath>
        </defs>
    </symbol>
    <symbol fill="none" viewBox="0 0 24 24" id="caret-down" xmlns="http://www.w3.org/2000/svg">
        <path d="M19.5 9L12 16.5 4.5 9" stroke="currentColor" stroke-linecap="round" stroke-linejoin="round"/>
    </symbol>
    <symbol fill="none" viewBox="0 0 24 24" id="caret-right" xmlns="http://www.w3.org/2000/svg">
        <path d="M9 4.5l7.5 7.5L9 19.5" stroke="currentColor" stroke-width="2" stroke-linecap="round"
              stroke-linejoin="round"/>
    </symbol>
    <symbol fill="none" viewBox="0 0 14 14" id="check" xmlns="http://www.w3.org/2000/svg">
        <path d="M6.906 0A6.914 6.914 0 000 6.906a6.914 6.914 0 006.906 6.907 6.914 6.914 0 006.907-6.907A6.914 6.914 0 006.905 0zM5.645 10.372L2.968 7.398l.79-.71 1.86 2.065 4.41-5.251.814.682-5.197 6.188z"
              fill="#488D3D"/>
    </symbol>
    <symbol fill="none" viewBox="0 0 14 12" id="check-form" xmlns="http://www.w3.org/2000/svg">
        <path d="M12.5 2l-8 8-3-3.5" stroke="#fff" stroke-width="2" stroke-miterlimit="10" stroke-linecap="square"/>
    </symbol>
    <symbol fill="none" viewBox="0 0 20 20" id="clock" xmlns="http://www.w3.org/2000/svg">
        <path d="M13.562 11.766l-2.788-2.091v-4.26a.774.774 0 10-1.55 0v4.647c0 .244.115.474.31.62l3.099 2.323a.77.77 0 00.464.155.773.773 0 00.466-1.394z"
              fill="#000"/>
        <path d="M10 0C4.486 0 0 4.486 0 10s4.486 10 10 10 10-4.486 10-10S15.514 0 10 0zm0 18.45c-4.66 0-8.45-3.79-8.45-8.45 0-4.66 3.79-8.45 8.45-8.45 4.66 0 8.45 3.79 8.45 8.45 0 4.66-3.79 8.45-8.45 8.45z"
              fill="#000"/>
    </symbol>
    <symbol fill="none" viewBox="0 0 18 18" id="close" xmlns="http://www.w3.org/2000/svg">
        <path d="M0 16.97L16.97 0l.708.707-16.97 16.97L0 16.972z" fill="currentColor"/>
        <path d="M16.97 17.678L0 .708.707 0l16.97 16.97-.706.708z" fill="currentColor"/>
    </symbol>
    <symbol fill="none" viewBox="0 0 33 33" id="credit-card" xmlns="http://www.w3.org/2000/svg">
        <path d="M27.665 5.392h-22.4c-2.1 0-3.8 1.7-3.8 3.8v14.4c0 2.1 1.7 3.8 3.8 3.8h22.4c2.1 0 3.8-1.7 3.8-3.8v-14.4c0-2.1-1.7-3.8-3.8-3.8zm1.8 18.2c0 .99-.81 1.8-1.8 1.8h-22.4c-.99 0-1.8-.81-1.8-1.8v-14.4c0-.99.81-1.8 1.8-1.8h22.4c.99 0 1.8.81 1.8 1.8v14.4z"
              fill="currentColor"/>
        <path d="M10.465 21.392h-4a1 1 0 000 2h4a1 1 0 000-2zm16-11h-20a1 1 0 000 2h20a1 1 0 000-2z"
              fill="currentColor"/>
    </symbol>
    <symbol fill="none" viewBox="0 0 24 24" id="delete" xmlns="http://www.w3.org/2000/svg">
        <path d="M15.75 9.345L13.056 12l2.692 2.655a.75.75 0 010 1.095.75.75 0 01-1.057 0l-2.693-2.693-2.655 2.693a.75.75 0 01-1.275-.529.75.75 0 01.218-.528L10.942 12 8.287 9.345a.75.75 0 011.057-1.057L12 10.943l2.655-2.655a.76.76 0 111.095 1.057zm3.674 10.08A10.5 10.5 0 114.576 4.575a10.5 10.5 0 0114.848 14.85zM18.367 5.632a9 9 0 10-12.706 12.75 9 9 0 0012.706-12.75z"
              fill="currentColor"/>
    </symbol>
    <symbol fill="none" viewBox="0 0 33 33" id="delivery-box" xmlns="http://www.w3.org/2000/svg">
        <path d="M27.708 5.253H22.72l-.005-.001H6.14a1 1 0 000 2h10.366v6.02c0 .55.45 1 1 1h5.21c.55 0 1-.45 1-1v-6.02h3.993a1.23 1.23 0 011.228 1.229v15.822a1.23 1.23 0 01-1.228 1.228H11.885a1.23 1.23 0 01-1.227-1.228V13.311a1 1 0 00-1-1H7.014a1 1 0 000 2h1.644v9.992a3.231 3.231 0 003.227 3.228h15.823a3.232 3.232 0 003.228-3.228V8.481a3.232 3.232 0 00-3.228-3.228zm-5.993 7.02h-3.21v-5.02h3.21v5.02z"
              fill="currentColor"/>
        <path d="M2.995 10.78h6.17a1 1 0 000-2h-6.17a1 1 0 000 2zm22.839 12.858a1 1 0 000-2h-3.123a1 1 0 000 2h3.123z"
              fill="currentColor"/>
    </symbol>
    <symbol fill="none" viewBox="0 0 32 32" id="delivery-car" xmlns="http://www.w3.org/2000/svg">
        <path d="M7.156 24.055h0a2.26 2.26 0 002.092 1.394l-2.092-1.394zm0 0a2.261 2.261 0 114.349-.864v0m-4.349.864l4.349-.864m0 0a2.26 2.26 0 01-2.257 2.258l2.257-2.258zm11.839 2.258a2.26 2.26 0 01-2.088-1.396h0A2.261 2.261 0 0124.21 21.1h0a2.259 2.259 0 011.393 2.091v0a2.26 2.26 0 01-2.26 2.258zm7.633-9.428v-.001l-1.952-2.497-2.171-4.55h0a4.226 4.226 0 00-3.796-2.398h0-3.817v-.899a.828.828 0 00-.826-.826H3.956a.827.827 0 000 1.653h13.633v7.418a.828.828 0 00.826.826h9.479l1.614 2.063v5.568h-2.33a3.908 3.908 0 00-7.646 0H13.07a3.906 3.906 0 00-7.646 0H3.618a.827.827 0 000 1.653h1.815a3.91 3.91 0 007.637 0h6.456a3.91 3.91 0 007.637 0h2.485a1.501 1.501 0 001.502-1.502v-6.002a.831.831 0 00-.173-.506zM19.241 8.224h3.825s0 0 0 0a2.559 2.559 0 012.307 1.457s0 0 0 0l1.632 3.424-7.764-.001v-4.88z"
              fill="#000" stroke="#000" stroke-width=".3"/>
        <path d="M6.67 17.414a.826.826 0 01.242.584l-.242-.584zm0 0a.826.826 0 00-.584-.242m.584.242l-.584-.242m0 0h-3.72m3.72 0h-3.72m0 0a.826.826 0 00-.825.826m.826-.826l-.826.826m0 0c0 .457.37.827.826.827m-.826-.826l.826.826m0 0h3.72m-3.72 0h3.72m0 0a.822.822 0 00.583-.242m-.584.242l.584-.242m0 0a.826.826 0 00.242-.584l-.242.584zm-4.994-3.816h7.777a.826.826 0 100-1.653H1.676a.826.826 0 100 1.653zM1.54 9.883a.826.826 0 00.827.826h7.777a.826.826 0 100-1.652H2.367a.826.826 0 00-.826.826z"
              fill="#000" stroke="#000" stroke-width=".3"/>
    </symbol>
    <symbol id="delivery-new" viewBox="0 0 31 17" xmlns="http://www.w3.org/2000/svg">
        <defs id="awdefs4">
            <style id="awstyle2">.awcls-1{fill:none;stroke:#3c4044;stroke-linecap:round;stroke-linejoin:round}</style>
        </defs>
        <path class="awcls-1" d="M22.44.5v13.6h-9.66a2.42 2.42 0 00-4.83 0H5.5V.5z" id="awpath8"/>
        <path class="awcls-1" d="M30.5 9.3v4.8h-1.61a2.42 2.42 0 00-4.83 0h-1.62V4.5h3.37z" id="awpath10"/>
        <path class="awcls-1" d="M30.5 9.3v4.8h-1.61a2.42 2.42 0 00-4.83 0h-1.62V9.3z" id="awpath12"/>
        <ellipse class="awcls-1" cx="10.36" cy="14.1" rx="2.42" ry="2.4" id="awellipse14"/>
        <ellipse class="awcls-1" cx="26.47" cy="14.1" rx="2.42" ry="2.4" id="awellipse16"/>
        <path class="awcls-1" id="awline18" d="M.5 2.1h2.61"/>
        <path class="awcls-1" id="awline20" d="M.5 5.3h2.61"/>
        <path class="awcls-1" id="awline22" d="M.5 8.5h2.61"/>
    </symbol>
    <symbol fill="none" viewBox="0 0 33 33" id="dress" xmlns="http://www.w3.org/2000/svg">
        <g clip-path="url(#axclip0_294_6533)">
            <path d="M28.477 29.92c0-2.903-.398-5.701-1.181-8.317A25.536 25.536 0 0024.69 15.7c-1.325-2.188-2.652-3.602-3.354-4.274l1.266-3.43a3.983 3.983 0 00-.716-3.967V.43H20.01v2.397a3.905 3.905 0 00-1.07-.147c-.994 0-1.947.372-2.68 1.013a4.083 4.083 0 00-2.82-1.01c-.32.01-.632.06-.93.144V.429h-1.875v3.6a3.984 3.984 0 00-.716 3.967l1.266 3.43c-.703.672-2.03 2.086-3.354 4.274a25.547 25.547 0 00-2.607 5.903c-.783 2.616-1.18 5.413-1.18 8.316v.938h6.1c.008.231.094 1.572.094 1.572h12.044s.085-1.341.094-1.573h6.1v-.937zM13.505 4.554h.076c.774 0 1.476.397 1.876 1.062l.804 1.337.803-1.337a2.17 2.17 0 011.953-1.062 1.99 1.99 0 011.597.895 2.08 2.08 0 01.23 1.897l-1.26 3.412h-6.646l-1.26-3.412a2.077 2.077 0 01.229-1.897 1.99 1.99 0 011.598-.895zm8.88 24.427c-.108-3.585-.9-6.746-1.621-8.928-.966-2.919-2-4.738-2.043-4.814l-1.627.932c.038.067 3.66 6.487 3.419 14.382h-3.315v-6.4h-1.875v6.4H12.01c-.12-3.959.74-7.514 1.513-9.864.906-2.753 1.896-4.501 1.905-4.518l-.813-.466-.814-.465c-.043.075-1.077 1.894-2.042 4.813-.722 2.182-1.513 5.343-1.622 8.928H5.935c.18-5.626 1.954-9.734 3.455-12.236 1.35-2.248 2.714-3.618 3.249-4.112h7.244c1.178 1.088 6.39 6.449 6.704 16.348h-4.201z"
                  fill="#000"/>
        </g>
        <defs>
            <clipPath id="axclip0_294_6533">
                <path fill="#fff" transform="translate(.232 .492)" d="M0 0h32v32H0z"/>
            </clipPath>
        </defs>
    </symbol>
    <symbol fill="none" viewBox="0 0 24 24" id="eddit" xmlns="http://www.w3.org/2000/svg">
        <path d="M17.25 21.75a.75.75 0 010-1.5.75.75 0 111.5 0c0 .827-.673 1.5-1.5 1.5z" fill="#999"/>
        <path d="M18 21a.75.75 0 01-.75-.75v-7.356a.75.75 0 011.5 0v7.356A.75.75 0 0118 21z" fill="#999"/>
        <path d="M17.25 21.75H3.75a.75.75 0 010-1.5h13.5a.75.75 0 010 1.5z" fill="#999"/>
        <path d="M3.75 21.75c-.827 0-1.5-.673-1.5-1.5a.75.75 0 011.5 0v.001a.75.75 0 110 1.499z" fill="#999"/>
        <path d="M3 21a.75.75 0 01-.75-.75V6.75a.75.75 0 011.5 0v13.5A.75.75 0 013 21z" fill="#999"/>
        <path d="M3 7.5a.75.75 0 01-.75-.75c0-.827.673-1.5 1.5-1.5a.75.75 0 010 1.5.75.75 0 01-.75.75z" fill="#999"/>
        <path d="M11.106 6.75H3.75a.75.75 0 010-1.5h7.356a.75.75 0 010 1.5zm-.631 4.874a.75.75 0 01-.53-1.28l7.325-7.325a.75.75 0 111.06 1.06l-7.325 7.325a.747.747 0 01-.53.22z"
              fill="#999"/>
        <path d="M9.75 15a.75.75 0 01-.734-.907l.725-3.376a.749.749 0 111.467.314l-.725 3.376a.75.75 0 01-.732.593zm3.376-.725a.75.75 0 01-.53-1.28l7.325-7.325a.75.75 0 111.06 1.06l-7.324 7.326a.746.746 0 01-.53.22z"
              fill="#999"/>
        <path d="M9.75 15a.75.75 0 01-.157-1.483l3.376-.725a.75.75 0 11.315 1.466l-3.377.725A.762.762 0 019.75 15zm9.375-6.723a.747.747 0 01-.53-.22l-2.652-2.652a.75.75 0 111.06-1.06l2.652 2.652a.75.75 0 01-.53 1.28zm1.326-1.327a.75.75 0 01-.53-1.28c.207-.207.322-.49.322-.795 0-.305-.115-.588-.322-.795-.417-.417-1.176-.416-1.592 0a.75.75 0 01-1.06-1.06 2.603 2.603 0 011.856-.763 2.603 2.603 0 012.617 2.618c0 .706-.27 1.365-.761 1.856a.745.745 0 01-.53.22z"
              fill="#999"/>
    </symbol>
    <symbol fill="none" viewBox="0 0 60 60" id="electro" xmlns="http://www.w3.org/2000/svg">
        <path d="M30.094 57.68c15.345 0 27.784-12.44 27.784-27.785 0-15.344-12.44-27.784-27.784-27.784-15.345 0-27.784 12.44-27.784 27.784 0 15.345 12.44 27.785 27.784 27.785z"
              stroke="currentColor" stroke-width="2.28"/>
        <path d="M30.098 40.291c5.742 0 10.397-4.655 10.397-10.397S35.84 19.496 30.098 19.496c-5.743 0-10.398 4.656-10.398 10.398s4.655 10.398 10.398 10.398z"
              fill="currentColor"/>
    </symbol>
    <symbol fill="none" viewBox="0 0 20 20" id="email" xmlns="http://www.w3.org/2000/svg">
        <path d="M18.242 2.383H1.758A1.76 1.76 0 000 4.14v11.718a1.76 1.76 0 001.758 1.758h16.484A1.76 1.76 0 0020 15.86V4.141a1.76 1.76 0 00-1.758-1.758zM18 3.555l-7.963 7.962-8.03-7.962H18zM1.172 15.617V4.377l5.644 5.596-5.644 5.644zm.829.828l5.647-5.647 1.979 1.962a.585.585 0 00.826-.002l1.93-1.93L18 16.446H2zm16.827-.828L13.211 10l5.617-5.617v11.234z"
              fill="#000"/>
    </symbol>
    <symbol viewBox="0 0 40 41" id="email--new" xmlns="http://www.w3.org/2000/svg">
        <path d="M23.343 25.008A6.008 6.008 0 0120 26.021a6.008 6.008 0 01-3.343-1.014L.267 14.08A5.119 5.119 0 010 13.891v17.906a3.681 3.681 0 003.682 3.682h32.636A3.681 3.681 0 0040 31.797V13.891a5.873 5.873 0 01-.267.19l-16.39 10.927z"/>
        <path d="M1.566 12.13l16.391 10.927a3.677 3.677 0 004.086 0l16.39-10.927A3.51 3.51 0 0040 9.202a3.685 3.685 0 00-3.681-3.681H3.681A3.686 3.686 0 000 9.204c0 1.178.586 2.272 1.566 2.926z"/>
    </symbol>
    <symbol viewBox="0 0 32 32" id="events" xmlns="http://www.w3.org/2000/svg">
        <path d="M26 14h-2v2h2a3.003 3.003 0 013 3v4h2v-4a5.006 5.006 0 00-5-5zM24 4a3 3 0 11-3 3 3 3 0 013-3m0-2a5 5 0 105 5 5 5 0 00-5-5zm-1 28h-2v-2a3.003 3.003 0 00-3-3h-4a3.003 3.003 0 00-3 3v2H9v-2a5.006 5.006 0 015-5h4a5.006 5.006 0 015 5zm-7-17a3 3 0 11-3 3 3 3 0 013-3m0-2a5 5 0 105 5 5 5 0 00-5-5zm-8 3H6a5.006 5.006 0 00-5 5v4h2v-4a3.003 3.003 0 013-3h2zM8 4a3 3 0 11-3 3 3 3 0 013-3m0-2a5 5 0 105 5 5 5 0 00-5-5z"/>
        <path data-name="&lt;Transparent Rectangle>" fill="none" d="M0 0h32v32H0z"/>
    </symbol>
    <symbol fill="none" viewBox="0 0 24 24" id="facebook" xmlns="http://www.w3.org/2000/svg">
        <path d="M12 0C5.383 0 0 5.383 0 12c0 6.616 5.383 12 12 12 6.616 0 12-5.384 12-12 0-6.617-5.383-12-12-12zm2.984 12.422h-1.952v6.959h-2.893v-6.959H8.764V9.963h1.375v-1.59c0-1.14.541-2.92 2.92-2.92l2.143.008v2.387h-1.556c-.253 0-.613.127-.613.67v1.446h2.204l-.253 2.458z"
              fill="#000"/>
    </symbol>
    <symbol fill="none" viewBox="0 0 20 20" id="faders" xmlns="http://www.w3.org/2000/svg">
        <path d="M10.75 14.125h-9m16.5 0h-4.5m-9-8.25h-3m16.5 0H7.75m0-2.25v4.5m6 8.25v-4.5" stroke="currentColor"
              stroke-linecap="round" stroke-linejoin="round"/>
    </symbol>
    <symbol viewBox="0 0 100 100" id="fashion" xmlns="http://www.w3.org/2000/svg">
        <path d="M57.9 41.4H42.1c-.7 0-1.3.3-1.8.8-4 4.9-24.1 29.9-23 46.4.1 1.2 1.1 2.2 2.3 2.2h11.9c.5 0 .9-.3 1.1-.8l5.8-15.8c.1-.4.7-.2.6.2l-1 15.1c0 .7.5 1.3 1.2 1.3h41.3c1.2 0 2.2-.9 2.3-2.2 1.1-16.4-19-41.5-23-46.4-.5-.5-1.2-.8-1.9-.8zM37.8 9.2h-1.4c-.3 0-.5.2-.5.5V15c.8-.2 1.6-.3 2.4-.4V9.7c.1-.3-.2-.5-.5-.5zm25.8 0h-1.4c-.3 0-.5.2-.5.5v4.9c.9 0 1.7.2 2.4.4V9.7c0-.3-.3-.5-.5-.5zm-31.3 11l8.4 16.5c.4.7 1.1 1.2 1.8 1.2h14.9c.8 0 1.5-.4 1.8-1.2l8.4-16.5c.5-1 0-2.4-1.1-2.9-3-1.4-8.8-2.9-15.2 2.9-.7.7-1.9.7-2.6 0-6.4-5.8-12.3-4.3-15.2-2.9-1.2.5-1.7 1.8-1.2 2.9z"/>
    </symbol>
    <symbol fill="none" viewBox="0 0 60 60" id="gas" xmlns="http://www.w3.org/2000/svg">
        <path d="M30 0s-6 7.519-6 11.719c0 3.12 2.143 5.78 4.969 6.28C27.81 17.566 27 16.184 27 14.814 27 12.713 30 9 30 9s3 3.713 3 5.813c0 1.37-.81 2.752-1.969 3.187C33.857 17.499 36 14.839 36 11.719 36 7.519 30 0 30 0zM9 3s-6 7.519-6 11.719c0 3.12 2.143 5.78 4.969 6.281C6.81 20.565 6 19.183 6 17.812 6 15.713 9 12 9 12s3 3.712 3 5.813c0 1.37-.905 2.752-2.063 3.187 2.824-.501 4.97-3.161 4.97-6.281C14.906 10.519 9 3 9 3zm42 0s-6 7.519-6 11.719c0 3.12 2.143 5.78 4.969 6.281C48.81 20.565 48 19.183 48 17.812c0-2.1 3-5.812 3-5.812s3 3.712 3 5.813c0 1.37-.905 2.752-2.063 3.187 2.823-.501 4.97-3.161 4.97-6.281C56.906 10.519 51 3 51 3zM30 18C15.088 18 3 23.373 3 30c0 4.158 4.771 7.784 12 9.937v5.532c1.434.744 3.417 1.425 6 1.875V41.25c1.913.303 3.916.459 6 .563v6.093c.693.03 1.412.085 2.156.094h1.688c.747-.01 1.463-.06 2.156-.094v-6.093c2.084-.105 4.087-.26 6-.563v6.094c2.583-.45 4.566-1.128 6-1.875v-5.532c7.229-2.153 12-5.779 12-9.937 0-6.627-12.088-12-27-12zM6 39v9c0 8.601 10.91 12 24 12 13.089 0 24-3.399 24-12v-9c-1.707 1.14-3.726 2.145-6 3v6c0 2.883-5.376 6-18 6-12.624 0-18-3.117-18-6v-6c-2.274-.855-4.293-1.86-6-3z"
              fill="currentColor"/>
    </symbol>
    <symbol fill="none" viewBox="0 0 32 33" id="geo-marker" xmlns="http://www.w3.org/2000/svg">
        <path d="M16 .362c-6.618 0-12 5.382-12 12C4 20.68 14.832 31.608 15.292 32.07a1.004 1.004 0 001.416 0C17.168 31.608 28 20.68 28 12.362c0-6.618-5.382-12-12-12zm0 29.554c-2.388-2.556-10-11.2-10-17.554 0-5.514 4.486-10 10-10s10 4.486 10 10c0 6.348-7.612 14.998-10 17.554z"
              fill="currentColor"/>
        <path d="M16 6.362c-3.308 0-6 2.692-6 6s2.692 6 6 6 6-2.692 6-6-2.692-6-6-6zm0 10c-2.206 0-4-1.794-4-4s1.794-4 4-4 4 1.794 4 4-1.794 4-4 4z"
              fill="currentColor"/>
    </symbol>
    <symbol viewBox="0 0 40 41" id="geo-marker--new" xmlns="http://www.w3.org/2000/svg">
        <path d="M20 .5C11.557.5 4.687 7.37 4.687 15.813A15.306 15.306 0 007.8 25.066L19.335 40.5h1.33l11.536-15.434a15.307 15.307 0 003.111-9.254C35.313 7.37 28.444.5 20 .5zm0 20.39a5.084 5.084 0 01-5.078-5.077c0-2.8 2.278-5.078 5.078-5.078 2.8 0 5.078 2.278 5.078 5.078 0 2.8-2.278 5.078-5.078 5.078z"/>
    </symbol>
    <symbol fill="none" viewBox="0 0 32 33" id="gift" xmlns="http://www.w3.org/2000/svg">
        <path d="M3 12.572v15.25a3.37 3.37 0 003.38 3.37h19.25a3.37 3.37 0 003.37-3.37v-15.25a3.38 3.38 0 00-3.37-3.38h-2.14c.295-.304.557-.64.78-1a4.851 4.851 0 00.12-4.76 3.78 3.78 0 00-3.39-1.9 5.19 5.19 0 00-4 1.69 6.08 6.08 0 00-1 1.42 6.08 6.08 0 00-.95-1.42 5.19 5.19 0 00-4-1.69 3.8 3.8 0 00-3.4 1.89 4.85 4.85 0 00.12 4.76c.223.36.485.696.78 1H6.38A3.38 3.38 0 003 12.572zm24 0v15.25a1.369 1.369 0 01-1.37 1.37H17l.07-18h8.59a1.38 1.38 0 011.34 1.38zm-6-9a1.79 1.79 0 011.67.89 2.79 2.79 0 01-.13 2.76c-.43.75-1.56 2-4.28 2H17c0-1.21.23-3.36 1.39-4.63A3.27 3.27 0 0121 3.532v.04zM9.47 7.182a2.79 2.79 0 01-.13-2.76 1.79 1.79 0 011.66-.89 3.27 3.27 0 012.56 1c1.17 1.3 1.38 3.45 1.44 4.66h-1.25c-2.75 0-3.85-1.26-4.28-2.01zM5 12.572a1.38 1.38 0 011.38-1.38H15l-.07 18H6.38A1.371 1.371 0 015 27.822v-15.25z"
              fill="#000"/>
    </symbol>
    <symbol fill="none" viewBox="0 0 20 24" id="gift-ideas" xmlns="http://www.w3.org/2000/svg">
        <path d="M17.215 4.87h-1.726c.15-.21.269-.445.314-.71.075-.43-.004-1.086-.795-1.773-.065-.056-.665-.547-1.662-.408-1.091.151-2.2.982-3.306 2.474C8.935 2.961 7.826 2.13 6.734 1.98c-.996-.138-1.597.352-1.663.408-.79.687-.869 1.343-.795 1.773.046.266.166.5.316.71H2.839a.633.633 0 00-.63.625l-.004 1.302a.621.621 0 00.62.625H17.2a.633.633 0 00.63-.625l.005-1.302a.621.621 0 00-.62-.625zm-3.742-1.646c.456-.076.715.108.716.108.905.786-.49 1.435-.73 1.538h-2.148c1.02-1.25 1.761-1.577 2.162-1.646zm-7.582.108c.001-.003.251-.173.672-.115.406.057 1.183.362 2.219 1.653H6.617c-.24-.094-1.578-.672-.726-1.538zm-2.597 5.34l-.012 8.32c0 .688.562 1.25 1.25 1.25H15.47c.687 0 1.25-.562 1.25-1.25l.012-8.32H3.294zm6.925 7.845c-.183.107-.424 0-.424 0-.17-.091-4.128-2.314-3.135-5.001.036-.08.48-.934 1.41-1.128.609-.126 1.26.059 1.938.549.676-.49 1.324-.676 1.934-.549.932.194 1.374 1.049 1.392 1.085 1.014 2.73-2.949 4.946-3.114 5.044z"
              fill="currentColor"/>
    </symbol>
    <symbol fill="none" viewBox="0 0 60 60" id="glass" xmlns="http://www.w3.org/2000/svg">
        <path d="M14.893 28.732c-.737 0-1.321-.63-1.205-1.356 1.132-7.087 6.737-12.68 13.829-13.796.726-.115 1.352.47 1.352 1.205 0 .655-.502 1.196-1.148 1.306A14.148 14.148 0 0016.2 27.586c-.112.645-.652 1.146-1.306 1.146zm-.012 2.51c-.734 0-1.318.626-1.206 1.351 1.104 7.123 6.724 12.754 13.841 13.874.727.114 1.354-.47 1.354-1.206 0-.655-.503-1.195-1.149-1.306a14.148 14.148 0 01-11.533-11.56c-.11-.648-.65-1.152-1.307-1.152zm30.488 0c-.656 0-1.197.505-1.306 1.152a14.148 14.148 0 01-11.534 11.561c-.646.11-1.148.651-1.148 1.306 0 .736.627 1.32 1.353 1.206 7.117-1.12 12.737-6.75 13.84-13.874.113-.725-.47-1.35-1.205-1.35zm-.011-2.51c.736 0 1.32-.63 1.205-1.356-1.133-7.087-6.738-12.68-13.83-13.796-.725-.115-1.352.47-1.352 1.205 0 .655.502 1.196 1.148 1.306a14.149 14.149 0 0111.522 11.495c.112.645.652 1.146 1.306 1.146z"
              fill="currentColor"/>
        <path d="M8.59 28.738c-.722 0-1.3-.608-1.22-1.326C8.556 16.827 16.96 8.423 27.544 7.236c.718-.081 1.326.497 1.326 1.22 0 .665-.52 1.212-1.182 1.291-9.312 1.11-16.698 8.496-17.806 17.81-.079.66-.626 1.181-1.292 1.181zm0 2.511c-.722 0-1.3.608-1.219 1.326 1.189 10.583 9.59 18.983 20.173 20.17.718.08 1.326-.497 1.326-1.22 0-.666-.52-1.212-1.182-1.291-9.31-1.11-16.695-8.493-17.805-17.803-.08-.662-.626-1.182-1.292-1.182zm43.07 0c-.666 0-1.213.52-1.292 1.182-1.11 9.31-8.495 16.694-17.805 17.803-.662.078-1.182.625-1.182 1.291 0 .723.608 1.3 1.326 1.22 10.583-1.187 18.984-9.587 20.173-20.17.08-.718-.497-1.326-1.22-1.326zm0-2.511c.723 0 1.301-.608 1.22-1.326-1.185-10.585-9.588-18.989-20.173-20.176-.718-.081-1.326.497-1.326 1.22 0 .665.52 1.212 1.182 1.291 9.312 1.11 16.698 8.496 17.806 17.81.079.66.626 1.181 1.292 1.181z"
              fill="currentColor"/>
        <path d="M2.168 28.734c-.715 0-1.29-.597-1.228-1.31C2.166 13.291 13.428 2.03 27.562.803c.713-.062 1.31.512 1.31 1.228 0 .672-.53 1.222-1.2 1.283C14.839 4.48 4.619 14.7 3.453 27.535c-.061.67-.611 1.2-1.284 1.2zm0 2.512c-.715 0-1.29.597-1.228 1.31 1.227 14.133 12.488 25.395 26.622 26.62.713.063 1.31-.512 1.31-1.227 0-.672-.53-1.223-1.2-1.284C14.839 55.5 4.619 45.28 3.453 32.445c-.061-.67-.611-1.2-1.284-1.2zm55.918 0c-.672 0-1.222.53-1.283 1.199-1.166 12.834-11.386 23.054-24.221 24.22-.67.061-1.199.611-1.199 1.284 0 .715.597 1.29 1.31 1.228 14.134-1.227 25.395-12.488 26.621-26.621.062-.713-.512-1.31-1.228-1.31zm0-2.512c.716 0 1.29-.597 1.228-1.31C58.088 13.291 46.827 2.03 32.694.803c-.714-.062-1.311.512-1.311 1.228 0 .672.53 1.222 1.199 1.283C45.417 4.48 55.637 14.7 56.802 27.535c.062.67.612 1.2 1.284 1.2zm-36.443.005c-.774 0-1.377-.684-1.168-1.43a10.051 10.051 0 016.978-6.945c.744-.206 1.424.397 1.424 1.169 0 .626-.457 1.15-1.053 1.341a7.54 7.54 0 00-4.84 4.818c-.194.593-.716 1.047-1.34 1.047zm-.023 2.511c-.769 0-1.37.677-1.17 1.419a10.052 10.052 0 007.003 7.035c.744.206 1.424-.397 1.424-1.169 0-.626-.457-1.15-1.053-1.342a7.539 7.539 0 01-4.861-4.883c-.19-.6-.715-1.06-1.343-1.06zm17.026 0c-.629 0-1.153.46-1.343 1.06a7.54 7.54 0 01-4.861 4.883c-.596.193-1.053.716-1.053 1.342 0 .772.68 1.375 1.423 1.169a10.051 10.051 0 007.003-7.035c.202-.742-.4-1.419-1.17-1.419zm-.023-2.511c.774 0 1.377-.684 1.168-1.43a10.052 10.052 0 00-6.979-6.945c-.743-.206-1.423.397-1.423 1.169 0 .626.457 1.15 1.053 1.341a7.54 7.54 0 014.84 4.818c.194.593.716 1.047 1.34 1.047z"
              fill="currentColor"/>
    </symbol>
    <symbol fill="none" viewBox="0 0 30 30" id="go" xmlns="http://www.w3.org/2000/svg">
        <circle cx="15" cy="15" r="15" fill="#fff"/>
        <path d="M9.5 15h11M16 10.5l4.5 4.5-4.5 4.5" stroke="#F55308" stroke-linecap="round" stroke-linejoin="round"/>
    </symbol>
    <symbol fill="none" viewBox="0 0 30 31" id="help-circle" xmlns="http://www.w3.org/2000/svg">
        <path d="M14.683 18.598h-.008a.938.938 0 01-.93-.946l.005-.468c0-.027.001-.054.004-.081.13-1.364 1.035-2.2 1.763-2.871.247-.228.48-.443.679-.668.242-.273.594-.833.224-1.508-.426-.78-1.467-1-2.276-.816-.844.193-1.155.915-1.266 1.327a.938.938 0 01-1.812-.485c.374-1.395 1.343-2.368 2.66-2.67 1.77-.404 3.555.312 4.338 1.744.652 1.192.474 2.592-.466 3.652-.261.294-.54.552-.81.801-.673.621-1.093 1.036-1.165 1.636l-.003.423a.936.936 0 01-.937.93zm-.001 2.811a.932.932 0 01-.66-1.598c.346-.347.974-.347 1.32 0a.93.93 0 01.277.66.956.956 0 01-.272.666.956.956 0 01-.665.272z"
              fill="#000"/>
        <path d="M14.964 27.548a12.09 12.09 0 01-3.142-.413c-4.389-1.18-7.826-4.817-8.755-9.264-.948-4.53.8-9.293 4.455-12.133 2.112-1.642 4.776-2.547 7.501-2.547 1.887 0 3.76.44 5.419 1.268 4.095 2.05 6.741 6.33 6.741 10.906 0 3.734-1.762 7.333-4.713 9.627a12.278 12.278 0 01-7.505 2.556zm.06-22.482c-2.31 0-4.567.764-6.351 2.152-3.092 2.404-4.573 6.435-3.77 10.27.786 3.761 3.693 6.838 7.407 7.836.86.231 1.753.35 2.654.35 2.306 0 4.563-.768 6.356-2.162a10.39 10.39 0 003.989-8.147c0-3.872-2.24-7.495-5.705-9.228-1.4-.7-2.983-1.07-4.58-1.07z"
              fill="#000"/>
    </symbol>
    <symbol fill="none" viewBox="0 0 57 36" id="hit" xmlns="http://www.w3.org/2000/svg">
        <path d="M0 4a4 4 0 014-4h53v36H14C6.268 36 0 29.732 0 22V4z" fill="currentColor"/>
        <path d="M11.052 19l4.663-6.24-4.472-5.98h2.08l3.414 4.663 3.38-4.663h2.098l-4.472 5.98L22.388 19h-2.097l-3.571-4.888L13.167 19h-2.115zm12.812 0V6.78h1.664v9.29l7.02-9.29H33.9V19h-1.664V9.675L25.216 19h-1.352zm15.863 0V8.288h-4.333V6.78h10.452v1.508h-4.334V19h-1.785zm-28.459 9.4v-4.666h4.07V28.4h-.777v-4.042h-2.515V28.4h-.778zm5.616 1.728v-6.394h.758v.835c.141-.287.35-.511.624-.671.282-.167.608-.25.98-.25.416 0 .777.1 1.084.297.314.192.554.47.72.836.173.358.26.787.26 1.286 0 .493-.087.922-.26 1.287a1.917 1.917 0 01-.72.835 1.955 1.955 0 01-1.084.297c-.359 0-.679-.08-.96-.24-.282-.16-.49-.38-.625-.662v2.544h-.777zm2.198-2.266c.435 0 .784-.153 1.047-.46.262-.314.393-.759.393-1.335 0-.582-.13-1.027-.393-1.334-.263-.308-.612-.461-1.047-.461-.435 0-.784.154-1.046.46-.263.308-.394.753-.394 1.335 0 .576.131 1.02.394 1.334.262.308.611.461 1.046.461zm5.432.624c-.455 0-.848-.099-1.181-.297a2.043 2.043 0 01-.778-.835c-.179-.365-.268-.794-.268-1.287 0-.493.09-.918.268-1.277a2.03 2.03 0 01.778-.845c.333-.198.726-.297 1.18-.297.449 0 .84.1 1.172.297.34.199.598.48.777.845.186.359.279.784.279 1.277 0 .493-.093.922-.279 1.287a1.966 1.966 0 01-.777.835c-.333.198-.723.297-1.171.297zm0-.624c.435 0 .784-.153 1.046-.46.263-.314.394-.759.394-1.335 0-.582-.131-1.027-.394-1.334-.262-.308-.611-.461-1.046-.461-.442 0-.794.154-1.056.46-.256.308-.384.753-.384 1.335 0 .576.128 1.02.384 1.334.262.308.614.461 1.056.461zm2.98 1.786v-1.872h.49c.223-.326.383-.7.48-1.123.095-.43.143-.944.143-1.546v-1.373h3.303v4.042h.739v1.872h-.672V28.4h-3.821v1.248h-.662zm1.238-1.872h2.438v-3.427h-1.872v.892c0 .48-.048.945-.144 1.393a3.797 3.797 0 01-.422 1.142zm6.43.71c-.32 0-.608-.06-.864-.182-.25-.128-.448-.3-.595-.518a1.273 1.273 0 01-.221-.73c0-.34.086-.608.26-.806.178-.199.47-.34.873-.423.41-.09.966-.134 1.67-.134h.307v-.298c0-.397-.083-.681-.25-.854-.16-.18-.418-.27-.777-.27-.281 0-.553.043-.816.126a3.068 3.068 0 00-.806.384l-.269-.567a2.97 2.97 0 01.883-.412 3.608 3.608 0 011.008-.154c.602 0 1.047.147 1.335.442.294.294.441.752.441 1.372V28.4h-.73v-.806a1.44 1.44 0 01-.566.652 1.6 1.6 0 01-.883.24zm.125-.585c.384 0 .697-.131.94-.394.244-.269.365-.608.365-1.018v-.288h-.297c-.519 0-.928.026-1.229.077-.294.045-.502.128-.624.25-.115.115-.173.275-.173.48 0 .262.09.477.269.643.186.166.435.25.749.25zm2.813.499l.96-1.613c.167-.281.317-.496.451-.643a1.25 1.25 0 01.47-.317l-1.64-2.093h.854l1.536 1.95h.739v-1.95h.777v1.95h.75l1.526-1.95h.854l-1.642 2.093c.173.064.327.17.461.317.141.147.295.362.461.643l.96 1.613h-.835l-.845-1.411c-.16-.276-.317-.458-.47-.547-.148-.09-.352-.135-.615-.135h-.605V28.4h-.777v-2.093h-.605c-.262 0-.467.045-.614.135-.148.09-.304.271-.47.547l-.846 1.41H38.1z"
              fill="#fff"/>
    </symbol>
    <symbol fill="none" viewBox="0 0 24 24" id="house" xmlns="http://www.w3.org/2000/svg">
        <path d="M20.006 10.275l-7.5-6.816a.75.75 0 00-1.012 0l-7.5 6.816a.779.779 0 00-.244.553V19.5a.75.75 0 00.75.75h15a.75.75 0 00.75-.75v-8.672a.778.778 0 00-.244-.553z"
              stroke="currentColor" stroke-linecap="round" stroke-linejoin="round"/>
    </symbol>
    <symbol fill="none" viewBox="0 0 33 33" id="info" xmlns="http://www.w3.org/2000/svg">
        <g clip-path="url(#bqclip0_759_23650)" fill="#000">
            <path d="M16.232.967c-8.843 0-16 7.156-16 16 0 8.843 7.156 16 16 16 8.844 0 16-7.156 16-16 0-8.843-7.156-16-16-16zm0 29.767c-7.59 0-13.767-6.176-13.767-13.767 0-7.592 6.176-13.768 13.767-13.768C23.824 3.2 30 9.375 30 16.967c0 7.591-6.176 13.767-13.768 13.767z"/>
            <path d="M16.233 13.692c-.617 0-1.117.5-1.117 1.117v9.153a1.116 1.116 0 102.233 0V14.81c0-.617-.5-1.117-1.116-1.117zm0-4.837c-.617 0-1.117.5-1.117 1.116v1.34a1.116 1.116 0 102.233 0v-1.34c0-.616-.5-1.116-1.116-1.116z"/>
        </g>
        <defs>
            <clipPath id="bqclip0_759_23650">
                <path fill="#fff" transform="translate(.232 .967)" d="M0 0h32v32H0z"/>
            </clipPath>
        </defs>
    </symbol>
    <symbol fill="none" viewBox="0 0 32 32" id="information" xmlns="http://www.w3.org/2000/svg">
        <path d="M16 25.219a1.563 1.563 0 100-3.125 1.563 1.563 0 000 3.125z" fill="#000"/>
        <path d="M16 0C7.157 0 0 7.156 0 16c0 8.843 7.156 16 16 16 8.843 0 16-7.156 16-16 0-8.843-7.156-16-16-16zm0 29.5C8.539 29.5 2.5 23.462 2.5 16 2.5 8.539 8.538 2.5 16 2.5c7.461 0 13.5 6.038 13.5 13.5 0 7.461-6.038 13.5-13.5 13.5z"
              fill="#000"/>
        <path d="M16 8.031c-2.757 0-5 2.243-5 5a1.25 1.25 0 102.5 0c0-1.378 1.121-2.5 2.5-2.5 1.378 0 2.5 1.122 2.5 2.5 0 1.379-1.122 2.5-2.5 2.5-.69 0-1.25.56-1.25 1.25v3.125a1.25 1.25 0 102.5 0v-2.033A5.01 5.01 0 0021 13.031c0-2.757-2.243-5-5-5z"
              fill="#000"/>
    </symbol>
    <symbol fill="none" viewBox="0 0 24 24" id="instagram" xmlns="http://www.w3.org/2000/svg">
        <path d="M12 14.402A2.406 2.406 0 0014.402 12c0-.523-.171-1.006-.455-1.4A2.4 2.4 0 0012 9.598a2.4 2.4 0 00-1.948 1.001 2.391 2.391 0 00-.455 1.4A2.404 2.404 0 0012 14.402zm5.245-5.341V6.748l-.3.001-2.013.006.007 2.314 2.306-.008z"
              fill="#000"/>
        <path d="M12 0C5.383 0 0 5.383 0 12c0 6.616 5.383 12 12 12 6.616 0 12-5.384 12-12 0-6.617-5.383-12-12-12zm6.825 10.6v5.587a2.64 2.64 0 01-2.638 2.639H7.813a2.64 2.64 0 01-2.638-2.639V7.814a2.64 2.64 0 012.638-2.638h8.373a2.64 2.64 0 012.639 2.638V10.6z"
              fill="#000"/>
        <path d="M15.733 12A3.738 3.738 0 0112 15.733 3.737 3.737 0 018.268 12c0-.495.098-.968.274-1.4H6.505v5.587c0 .722.586 1.307 1.308 1.307h8.373c.72 0 1.308-.585 1.308-1.307V10.6h-2.038c.177.432.277.905.277 1.4z"
              fill="#000"/>
    </symbol>
    <symbol fill="none" viewBox="0 0 50 50" id="like" xmlns="http://www.w3.org/2000/svg">
        <circle cx="25" cy="25" r="24.5" stroke="#000" opacity=".1"/>
        <path d="M25 37a.687.687 0 01-.328-.09c-.125-.055-2.932-1.63-5.785-4.154C14.98 29.283 13 25.832 13 22.482a6.42 6.42 0 011.283-3.851 6.565 6.565 0 013.353-2.345 6.652 6.652 0 014.109.08A6.556 6.556 0 0125 18.842a6.556 6.556 0 013.255-2.474 6.652 6.652 0 014.11-.08 6.565 6.565 0 013.352 2.344A6.419 6.419 0 0137 22.482c0 3.35-1.981 6.801-5.887 10.274-2.853 2.524-5.66 4.099-5.785 4.155A.687.687 0 0125 37zm-5.434-19.655a5.244 5.244 0 00-3.682 1.505 5.102 5.102 0 00-1.526 3.632c0 6.4 8.808 11.983 10.642 13.066 1.834-1.083 10.642-6.667 10.642-13.066a5.095 5.095 0 00-1.177-3.264 5.22 5.22 0 00-3.01-1.785 5.27 5.27 0 00-3.474.506 5.163 5.163 0 00-2.358 2.566.66.66 0 01-.623.42.66.66 0 01-.623-.42 5.154 5.154 0 00-1.92-2.299 5.257 5.257 0 00-2.891-.861z"
              fill="#000"/>
    </symbol>
    <symbol fill="none" viewBox="0 0 20 20" id="like-full" xmlns="http://www.w3.org/2000/svg">
        <path d="M17.19 10.305L10 17.472l-7.19-7.19a4.688 4.688 0 01-1.371-3.34c0-1.269.487-2.455 1.372-3.34A4.703 4.703 0 016.163 2.23c1.257 0 2.45.49 3.358 1.378a.72.72 0 001.012-.006 4.688 4.688 0 013.34-1.372 4.68 4.68 0 013.334 1.366 4.771 4.771 0 011.354 3.358c0 1.257-.489 2.45-1.371 3.351z"
              fill="#000"/>
    </symbol>
    <symbol fill="none" viewBox="0 0 24 24" id="list" xmlns="http://www.w3.org/2000/svg">
        <path d="M4 12h6M4 6h6M3.75 18h16.5M18 12l2 2m-4.5-1a3.5 3.5 0 100-7 3.5 3.5 0 000 7z" stroke="currentColor"
              stroke-linecap="round" stroke-linejoin="round"/>
    </symbol>
    <symbol fill="none" viewBox="0 0 20 20" id="locator" xmlns="http://www.w3.org/2000/svg">
        <path d="M10 18.933a.616.616 0 01-.442-.183l-4.8-4.8a7.416 7.416 0 1110.483 0l-4.8 4.8a.618.618 0 01-.441.183zm0-16.391a6.167 6.167 0 00-4.36 10.525L10 17.425l4.358-4.358A6.166 6.166 0 0010 2.542z"
              fill="#000"/>
        <path d="M10 11.458a3.125 3.125 0 110-6.25 3.125 3.125 0 010 6.25zm0-5a1.875 1.875 0 100 3.75 1.875 1.875 0 000-3.75z"
              fill="#000"/>
    </symbol>
    <symbol fill="none" viewBox="0 0 32 32" id="material" xmlns="http://www.w3.org/2000/svg">
        <path d="M30.54 13.176a1.333 1.333 0 00-.534-.32c-.036 0-.07-.036-.107-.036l-.107-.036-1.99-.497 1.528-1.529c.996-.995 1.315-2.31.818-3.518C29.578 5.854 28.05 5 26.2 5H15.823c-.392 0-.747.142-1.03.426L2.707 17.512l-.178.178-.071.071C1.569 18.757 1 20.036 1 21.457a5.514 5.514 0 005.51 5.51h11.694c.392 0 .747-.141 1.03-.426l11.34-11.34c.284-.284.426-.64.426-1.03a1.61 1.61 0 00-.46-.995zm-2.347.32l-10.628 10.63H6.475a2.61 2.61 0 01-2.596-2.596 2.61 2.61 0 012.595-2.595h8.816a.73.73 0 01.747.747.73.73 0 01-.747.747H6.971c-.781 0-1.458.64-1.458 1.458s.64 1.458 1.458 1.458h8.318c.995 0 1.884-.391 2.559-1.066l9.065-9.065 1.28.284zM15.538 6.21a.405.405 0 01.285-.106h10.38c1.422 0 2.559.604 2.95 1.6.32.78.107 1.67-.569 2.346l-9.634 9.598c0-1.991-1.6-3.626-3.591-3.626H6.472c-.285 0-.57.036-.818.071l9.884-9.883zm14.254 8.283l-11.339 11.34a.405.405 0 01-.284.106H6.474a4.446 4.446 0 01-4.443-4.443 4.37 4.37 0 011.208-3.022l.177-.177a4.362 4.362 0 013.022-1.209h8.85c1.386 0 2.56 1.174 2.56 2.56a2.552 2.552 0 01-2.56 2.56l-8.317-.001a.395.395 0 01-.392-.392c0-.214.178-.391.392-.391h8.317c.996 0 1.814-.818 1.814-1.814 0-.995-.818-1.813-1.814-1.813l-8.814.001a3.657 3.657 0 00-3.662 3.662 3.657 3.657 0 003.662 3.662h11.553L29.26 13.887a.388.388 0 01.534 0c.07.07.107.178.107.284-.002.144-.037.25-.109.321z"
              fill="#000" stroke="#000" stroke-width=".55"/>
    </symbol>
    <symbol fill="none" viewBox="0 0 33 33" id="measuring-book" xmlns="http://www.w3.org/2000/svg">
        <g clip-path="url(#byclip0_759_23638)" fill="#000">
            <path d="M5.732 29.238a1 1 0 01-1-1V4.863A4.13 4.13 0 018.857.738h17.875a1 1 0 011 1v23a1 1 0 11-2 0v-22H8.857a2.127 2.127 0 00-2.125 2.125v23.375a1 1 0 01-1 1z"/>
            <path d="M26.732 32.737h-17.5a4.505 4.505 0 01-4.5-4.5c0-2.48 2.02-4.5 4.5-4.5h17.5a1 1 0 010 2h-17.5a2.503 2.503 0 00-2.5 2.5c0 1.379 1.122 2.5 2.5 2.5h17.5a1 1 0 010 2z"/>
            <path d="M26.732 29.238h-17.5a1 1 0 110-2h17.5a1 1 0 010 2zm-16.5-3.5a1 1 0 01-1-1v-23a1 1 0 012 0v23a1 1 0 01-1 1z"/>
        </g>
        <defs>
            <clipPath id="byclip0_759_23638">
                <path fill="#fff" transform="translate(.232 .738)" d="M0 0h32v32H0z"/>
            </clipPath>
        </defs>
    </symbol>
    <symbol viewBox="0 0 58 41.951" id="measuring-tape" xmlns="http://www.w3.org/2000/svg">
        <g data-name="Layer 27">
            <path d="M7.71 9.1c1.83.68 7 2.27 15.72 2.27S37.32 9.78 39.15 9.1a1 1 0 000-1.88c-1.83-.68-7-2.27-15.72-2.27S9.54 6.54 7.71 7.22a1 1 0 000 1.88zm15.72-2.15a52.11 52.11 0 0111.83 1.21 52.7 52.7 0 01-11.83 1.21A52.7 52.7 0 0111.6 8.16a52.11 52.11 0 0111.83-1.21z"/>
            <path d="M49.42 14.37h-2.56V8.16a.71.71 0 000-.16c-.24-5.23-12.18-8-23.42-8C13-.05 2 2.37.26 6.87a1 1 0 00-.26.65v11.05c0 5.23 11.6 8.1 22.76 8.21h26.66a6.52 6.52 0 014 1.37 6.52 6.52 0 01-4 1.37H8.86a1 1 0 00-1 1v10.43a1 1 0 001 1h40.56A8.59 8.59 0 0058 33.37V22.95a8.59 8.59 0 00-8.58-8.58zm-10.42 0a17.74 17.74 0 005.82-2.73v2.73zM23.43 1.95c12.26 0 21.43 3.28 21.43 6.21s-9.17 6.21-21.43 6.21S2 11.09 2 8.16s9.17-6.21 21.43-6.21zm27.37 23v-1.58a1 1 0 00-2 0v1.42h-6.32v-3.84a1 1 0 10-2 0v3.84h-6.32v-1.42a1 1 0 00-2 0v1.42h-6.32v-3.84a1 1 0 00-2 0v3.84h-.41c-2.07 0-4-.1-5.91-.27v-1.15a1 1 0 00-2 0v.93a45.32 45.32 0 01-6.32-1.21v-2.14a1 1 0 00-2 0v1.52C3.94 21.33 2 19.95 2 18.58v-6.94c3.8 3 12.44 4.65 20.83 4.72h26.59a6.58 6.58 0 015.4 10.34 8.43 8.43 0 00-4.02-1.75zm-.8 15v-1.42a1 1 0 00-2 0v1.42h-6.32v-3.84a1 1 0 00-2 0v3.84h-6.32v-1.42a1 1 0 00-2 0v1.42H25v-3.84a1 1 0 00-2 0v3.84h-6.28v-1.42a1 1 0 00-2 0v1.42H9.86v-8.42h39.56a8.55 8.55 0 005.4-1.92A6.58 6.58 0 0150 39.95z"/>
        </g>
    </symbol>
    <symbol fill="none" viewBox="0 0 22 2" id="minuse" xmlns="http://www.w3.org/2000/svg">
        <path fill="currentColor" d="M21.535.273v1h-21v-1z"/>
    </symbol>
    <symbol fill="none" viewBox="0 0 24 24" id="money" xmlns="http://www.w3.org/2000/svg">
        <path d="M23.935 14.128a.473.473 0 00-.23-.2l-1.722-.704 1.783-1.05a.473.473 0 00-.062-.846l-1.72-.705 1.782-1.05a.473.473 0 00.227-.449.473.473 0 00-.293-.402l-6.777-2.775-3.338-1.42a.473.473 0 00-.17-.032L7.977 2.282a.473.473 0 00-.412.023L.278 6.4a.473.473 0 00.047.866l1.76.728L.278 9.001a.473.473 0 00.047.847l1.76.728-1.797 1.007a.473.473 0 00.037.884l1.76.724-1.797 1.007a.473.473 0 00.047.847l6.114 2.596a.51.51 0 00.071.042l3.343 1.419 6.148 2.615a.473.473 0 00.425-.028l7.33-4.313a.473.473 0 00-.062-.847l-1.72-.704 1.782-1.05a.473.473 0 00.17-.647zm-1.474-2.294l-6.304 3.712-5.636-2.393v-1.575l5.485 2.332a.473.473 0 00.426-.029l4.525-2.662 1.504.615zm.019-2.606l-6.323 3.712-5.12-2.175 5.768-3.854 5.675 2.317zM6.217 16.525L1.58 14.553l1.593-.894 3.05 1.296-.005 1.57zm0-2.601L1.58 11.952l1.593-.903 3.05 1.296-.005 1.579zm0-2.6L1.58 9.355l1.593-.894 3.05 1.296-.005 1.565zM1.58 6.754l6.25-3.512L12.365 5.1 6.653 8.912 1.579 6.755zm8.204 3.717a.473.473 0 00-.208.393v7.093l-2.407-1.022v-7.23l6.266-4.176 2.33.946-5.981 3.996zm12.678 6.563l-6.304 3.708-5.636-2.393v-1.57l5.485 2.308a.473.473 0 00.426-.029l4.525-2.662 1.504.639zm-6.304 1.107l-5.636-2.393v-1.57l5.49 2.332a.473.473 0 00.425-.029l4.526-2.662 1.499.615-6.304 3.707z"
              fill="#000"/>
    </symbol>
    <symbol fill="none" viewBox="0 0 50 50" id="more" xmlns="http://www.w3.org/2000/svg">
        <circle cx="25" cy="25" r="25" fill="currentColor"/>
        <path d="M37 13H13v24h24V13z" fill="currentColor"/>
        <path d="M16.75 25h16.5M25 16.75v16.5" stroke="#fff" stroke-linecap="round" stroke-linejoin="round"/>
    </symbol>
    <symbol viewBox="0 0 64 64" id="newspaper" xmlns="http://www.w3.org/2000/svg">
        <g fill="#241F20">
            <path d="M59.565 2.186H17.649c-2.449 0-4.425 2.016-4.425 4.476v5.995c-.025.507-.182 1.315-.938 1.312h-.001c-1.655-.008-4.06-.019-7.007-.03C1.5 13.921.357 16.628.011 18.481v32.487s.114 3.153.881 5.034c.38.836.861 1.679 1.462 2.562.968 1.421 2.447 2.172 3.659 2.569l-.003.001s.581.465 4.905.68h49.11a4.434 4.434 0 003.965-4.429V6.662c-.001-2.46-1.976-4.476-4.425-4.476zM13.436 46.989c0 1.386-.396 5.117-.475 5.848-.035.198-.059.383-.101.591l.003-.002s-.364 2.287-.966 3.894c-.237.678-.736.927-1.001 1.011-2.921.508-4.443-.52-4.785-.8-.429-.407-.889-.973-1.335-1.823-.016-.028-.035-.049-.049-.078-.032-.062-.051-.122-.081-.184-.075-.153-.15-.288-.224-.456-.038-.089-.059-.171-.085-.255-.879-2.022-1.275-3.878-1.267-6.119l.084-26.323s-.203-5.439 3.42-5.417l5.807.035h.003l.173.002h.025c.304.03.846.228.851 1.286l-.002.602h.006v28.188zm47.513 7.513c0 2.214-1.732 4.002-3.88 4.002H20.2a400.719 400.719 0 01-3.673-.031c-.98-.015-1.208-.642-1.24-1.139.042-.896.263-2.113.412-2.837.038-.171.073-.339.107-.512l.022-.1c.44-2.223.554-4.331.554-4.331h-.003c.019-.316.028-.591.028-.767V9.115c0-2.202 1.736-4.004 3.882-4.004h36.779c2.147 0 3.88 1.802 3.88 4.004v45.387z"/>
            <path d="M24.245 15.435h28.967s2.035-.163 2.012 1.491c0 .606-.046 1.492-2.075 1.492H24.246s-1.54-.214-1.492-1.494c.021-.72.419-1.489 1.491-1.489zm0 7.521h28.967s2.035-.163 2.012 1.492c0 .607-.046 1.492-2.075 1.492H24.246s-1.54-.214-1.492-1.494c.021-.72.419-1.49 1.491-1.49zm-.25 7.555h28.969s2.035-.163 2.011 1.492c0 .606-.046 1.492-2.074 1.492H23.995s-1.538-.214-1.492-1.494c.025-.72.421-1.49 1.492-1.49zm0 7.273h28.969s2.035-.163 2.011 1.492c0 .605-.046 1.492-2.074 1.492H23.995s-1.538-.214-1.492-1.493c.025-.72.421-1.491 1.492-1.491zm0 7.584h28.969s2.035-.163 2.011 1.492c0 .606-.046 1.492-2.074 1.492H23.995s-1.538-.212-1.492-1.493c.025-.72.421-1.491 1.492-1.491z"/>
        </g>
    </symbol>
    <symbol fill="none" viewBox="0 0 80 80" id="package" xmlns="http://www.w3.org/2000/svg">
        <path d="M70 55.407V24.594a2.532 2.532 0 00-1.281-2.187l-27.5-15.47a2.437 2.437 0 00-2.438 0l-27.5 15.47A2.532 2.532 0 0010 24.594v30.813a2.532 2.532 0 001.281 2.187l27.5 15.469a2.438 2.438 0 002.438 0l27.5-15.469A2.531 2.531 0 0070 55.407z"
              stroke="currentColor" stroke-width="2" stroke-linecap="round" stroke-linejoin="round"/>
        <path d="M55.313 47.656v-16.25L25 14.688" stroke="currentColor" stroke-width="2" stroke-linecap="round"
              stroke-linejoin="round"/>
        <path d="M69.656 23.31L40.281 39.998 10.344 23.311M40.281 40L40 73.375" stroke="currentColor" stroke-width="2"
              stroke-linecap="round" stroke-linejoin="round"/>
    </symbol>
    <symbol fill="none" viewBox="0 0 24 24" id="pdf" xmlns="http://www.w3.org/2000/svg">
        <path d="M3 1.44C3 .645 3.645 0 4.44 0H15l6 5.04v17.52A1.44 1.44 0 0119.56 24H4.44A1.44 1.44 0 013 22.56V1.44z"
              fill="#EF5350"/>
        <path d="M15 0v3.6c0 .795.645 1.44 1.44 1.44H21" fill="#D32F2F"/>
        <path d="M7.515 15.217h-.563v1.726H5.707v-5.199H7.35c1.418 0 2.228.555 2.228 1.696 0 1.223-.833 1.777-2.063 1.777zm-.15-2.588h-.413v1.688h.458c.562 0 .885-.27.885-.878 0-.547-.308-.81-.93-.81zm4.178 4.314h-1.41v-5.199h1.32c1.336 0 2.61.428 2.61 2.574 0 2.114-1.222 2.625-2.52 2.625zm.09-4.299h-.255v3.399h.255c.682 0 1.14-.368 1.14-1.726 0-1.387-.487-1.673-1.14-1.673zm4.597-.014v1.365h1.815v.892h-1.816v2.056h-1.252v-5.199h3.428l-.128.885H16.23z"
              fill="#fff"/>
    </symbol>
    <symbol fill="none" viewBox="0 0 24 24" id="percent" xmlns="http://www.w3.org/2000/svg">
        <path d="M18.75 5.25l-13.5 13.5" stroke="currentColor" stroke-linecap="round" stroke-linejoin="round"/>
        <path d="M7.125 9.75a2.625 2.625 0 100-5.25 2.625 2.625 0 000 5.25zm9.75 9.75a2.625 2.625 0 100-5.25 2.625 2.625 0 000 5.25z"
              stroke="currentColor" stroke-miterlimit="10"/>
    </symbol>
    <symbol fill="none" viewBox="0 0 21 22" id="plus" xmlns="http://www.w3.org/2000/svg">
        <path fill="currentColor" d="M10 .372h1v21h-1z"/>
        <path fill="currentColor" d="M21 10.372v1H0v-1z"/>
    </symbol>
    <symbol fill="none" viewBox="0 0 33 33" id="return" xmlns="http://www.w3.org/2000/svg">
        <g clip-path="url(#ciclip0_759_23717)">
            <path fill-rule="evenodd" clip-rule="evenodd"
                  d="M26.09.392c.518 0 .937.42.937.938v12.439a9.828 9.828 0 015.438 8.795c0 5.428-4.4 9.828-9.828 9.828a9.828 9.828 0 01-8.795-5.437H1.402a.937.937 0 01-.937-.938V1.33c0-.518.42-.938.937-.938H26.09zm-7.875 1.875v5.254a.936.936 0 01-1.422.803l-3.047-1.549-3.11 1.581a.936.936 0 01-1.356-.835l-.003-5.254H2.34V25.08h10.794a9.83 9.83 0 012.553-9.465 9.83 9.83 0 019.465-2.554V2.267h-6.937zm1.437 24.438h4.375c1 0 1.906-.407 2.562-1.064.69-.69 1.063-1.583 1.063-2.624a3.63 3.63 0 00-3.625-3.625h-2.605l.55-.551c.867-.872-.459-2.19-1.326-1.319l-2.15 2.155a.935.935 0 00.004 1.322l2.154 2.15c.872.867 2.19-.46 1.319-1.326l-.557-.556h2.611c1.015 0 1.75.812 1.75 1.812 0 .963-.787 1.75-1.75 1.75h-4.375a.937.937 0 100 1.876zm-2.64-9.765a7.954 7.954 0 1011.25 11.248 7.954 7.954 0 00-11.25-11.248zM16.34 2.267h-5.188v3.729l2.17-1.103a.934.934 0 01.845-.002l2.173 1.105V2.267z"
                  fill="#000"/>
        </g>
        <defs>
            <clipPath id="ciclip0_759_23717">
                <path fill="#fff" transform="translate(.465 .392)" d="M0 0h32v32H0z"/>
            </clipPath>
        </defs>
    </symbol>
    <symbol fill="none" viewBox="0 0 32 32" id="ribbon" xmlns="http://www.w3.org/2000/svg">
        <path d="M27 1c-3.048 0-6.492 2.027-8.322 3.273A.989.989 0 0018 4h-4a.982.982 0 00-.626.238C11.562 3.025 8.077 1 5 1 2.346 1 1 2.315 1 4.91V12c0 2.513 2.323 4.885 4.828 4.99C4.245 20.067 3 25.109 3 29a1 1 0 001.554.832l2.318-1.545 2.42 2.42a1.004 1.004 0 001.091.217A1 1 0 0011 30c0-7.293 2.741-13.291 3.604-15h2.792C18.261 16.706 21 22.687 21 30a1 1 0 001.707.707l2.42-2.42 2.318 1.545A1 1 0 0029 29c0-3.891-1.245-8.933-2.828-12.01C28.677 16.885 31 14.513 31 12V5c0-3.306-2.175-4-4-4zm2 4v3.367C28.367 8.094 27.661 8 27 8c-2.877 0-6.106 1.807-8 3.058v-1.44l3.447-1.724a1 1 0 00-.895-1.789L19 7.382v-.885C20.179 5.624 23.976 3 27 3c1.853 0 2 .867 2 2zM5 3c2.959 0 6.678 2.467 7.941 3.372.016.038.038.073.059.11v.9l-2.553-1.276a1 1 0 00-.894 1.789L13 9.618v1.439C11.106 9.807 7.877 8 5 8c-.661 0-1.367.094-2 .367V4.91C3 3.971 3 3 5 3zm-2 9c0-1.133.147-2 2-2 2.524 0 5.606 1.843 7.237 2.956C10.842 13.785 8.389 15 6 15c-1.43 0-3-1.57-3-3zm6.084 15.67l-1.377-1.377a.999.999 0 00-1.262-.125l-1.348.898c.391-4.078 1.887-8.543 3.224-10.341 1.491-.336 2.867-.931 3.951-1.498-1.066 2.346-2.789 6.884-3.188 12.443zM15 6h2v7h-2V6zm10.555 20.168a.998.998 0 00-1.262.125l-1.377 1.377c-.399-5.559-2.122-10.097-3.188-12.442 1.084.567 2.46 1.161 3.951 1.498 1.337 1.798 2.833 6.263 3.224 10.341l-1.348-.899zM26 15c-2.39 0-4.843-1.215-6.238-2.045C21.39 11.843 24.469 10 27 10c1.853 0 2 .867 2 2 0 1.43-1.57 3-3 3z"
              fill="#000"/>
    </symbol>
    <symbol fill="none" viewBox="0 0 24 24" id="ruler" xmlns="http://www.w3.org/2000/svg">
        <path d="M23.85 6.294L17.706.15c-.2-.2-.524-.2-.724 0L.15 16.981c-.2.201-.2.525 0 .725l6.144 6.144c.2.2.524.2.725 0l16.83-16.831a.511.511 0 000-.725zM6.654 22.76L1.24 17.346l4.067-4.066 1.845 1.846c.196.205.525.21.725.01a.507.507 0 00.01-.725l-.01-.01-1.846-1.84 1.342-1.342 2.88 2.879c.2.2.529.2.724-.006.2-.2.2-.524 0-.725L8.098 10.49 9.44 9.147l1.845 1.84a.512.512 0 10.725-.725l-1.845-1.84 1.342-1.342 2.878 2.88a.512.512 0 10.725-.726l-2.879-2.879 1.342-1.341 1.846 1.845a.512.512 0 10.73-.72l-.006-.005-1.83-1.86 1.342-1.342 2.879 2.878a.512.512 0 10.725-.724l-2.879-2.88.966-.966 5.414 5.414L6.654 22.76z"
              fill="#000"/>
        <path d="M7.06 17.033a1.654 1.654 0 00-2.334 0 1.654 1.654 0 000 2.334 1.654 1.654 0 002.334 0 1.654 1.654 0 000-2.334zm-.673 1.594a.06.06 0 01-.057.02.63.63 0 01-.884 0 .63.63 0 010-.884.63.63 0 01.884 0c.252.231.288.612.057.864z"
              fill="#000"/>
    </symbol>
    <symbol fill="none" viewBox="0 0 80 80" id="rus" xmlns="http://www.w3.org/2000/svg">
        <path d="M41.373 35.32c-.084-1.406-.255-2.603-.634-3.688-.385-1.104-.99-2.107-1.945-3.121-.397.163-.81.27-1.24.301a.734.734 0 01-.79-.67.73.73 0 01.681-.777c.541-.04 1.073-.287 1.59-.644a6.55 6.55 0 00.367-.272l-.39.011c-1.63.051-3.237.1-4.705-.748-.864-.5-1.528-.527-2.113-.24-.422.205-.836.565-1.264 1.03a3.1 3.1 0 01.721.427c.433.343.78.81.938 1.353a2.3 2.3 0 01.089.542c.224.11.625.138 1.034.165.287.02.576.04.864.089.065.01.137.029.215.053.926.29 1.408 1.336 1.59 2.581.137.934.117 2.009-.001 2.894a1.735 1.735 0 00.814-.994.74.74 0 01.926-.469c.388.122.6.53.476.91a3.221 3.221 0 01-.553 1.028l-.372 2.04a.714.714 0 01-.1.257 4.55 4.55 0 001.308-.345c.849-.361 1.66-.966 2.496-1.714h-.002zm17.59 17.782a.457.457 0 01-.461-.454c0-.25.206-.454.461-.454h1.2v-1.588c0-.25.207-.454.462-.454.256 0 .462.203.462.454v1.588h1.2c.256 0 .462.203.462.454 0 .25-.206.454-.462.454h-1.2v3.558c0 .25-.206.454-.462.454a.458.458 0 01-.461-.454v-3.558h-1.2zM9.735 44.697a.466.466 0 01-.644-.094.448.448 0 01.095-.633l.965-.704-.965-1.276a.448.448 0 01.096-.634.466.466 0 01.645.095l.964 1.275.965-.704a.466.466 0 01.644.094c.152.2.109.484-.096.633l-.964.704 1.377 1.823a.74.74 0 011.152-.237c.112.096.207.27.359.55.418.77 1.447 2.665 2.238 3.53.18.197.449.467.776.795.926.932 2.295 2.307 3.255 3.579.635.84 1.09 1.654 1.176 2.345l.056.006c.47.065.914.307 1.219.71a1.77 1.77 0 01.29 1.56c.3.082.618.228.948.434.64.402 1.372 1.046 2.083 1.853a2.258 2.258 0 011.667.247c.089.05.178.065.267.055.126-.013.272-.072.428-.16 1.094-.623 1.36-1.247 1.417-1.803a.736.736 0 01-.8-.585c-.383-1.965-.569-3.526-.233-4.846.358-1.407 1.264-2.47 3.061-3.317.2-.094.916-.603 1.285-1.506.19-.466.275-1.036.12-1.705-.668-2.35-.555-4.97.183-7.943.142-.574.265-.974.528-1.267l.002.001c.368-.41.81-.515 1.496-.34.173.045.343.08.508.107a.71.71 0 01-.076-.47l.128-.7a3.68 3.68 0 01-.92.12.748.748 0 01-.226-.034.722.722 0 01-.48-.909 4.65 4.65 0 00.146-.623 9.46 9.46 0 00.051-2.804c-.107-.733-.292-1.318-.574-1.407l-.018-.002a7.351 7.351 0 00-.714-.07c-.742-.05-1.466-.1-2.006-.582-.31.016-.604.06-.874.172-.355.146-.713.426-1.088.946a.747.747 0 01-1.15.124c-.467-.464-.64-1.369-.512-2.289.108-.778.425-1.611.95-2.203.866-1.097 1.668-1.976 2.602-2.433 1.04-.509 2.153-.497 3.517.292 1.102.637 2.497.594 3.914.55.758-.024 1.522-.048 2.291.021a.74.74 0 01.469.199.717.717 0 01.026 1.025c-.524.54-1.076 1.068-1.663 1.503.986 1.1 1.627 2.2 2.048 3.405.037.106.072.213.106.32.034-.107.07-.214.106-.32.42-1.206 1.062-2.306 2.049-3.405-.588-.435-1.14-.963-1.664-1.503a.716.716 0 01.027-1.025.74.74 0 01.468-.198c.77-.07 1.533-.046 2.291-.023 1.417.045 2.812.088 3.914-.55 1.364-.787 2.478-.799 3.518-.291.934.457 1.736 1.336 2.602 2.433.524.592.842 1.424.949 2.203.128.92-.044 1.825-.51 2.289a.747.747 0 01-1.151-.124c-.375-.52-.733-.799-1.088-.946-.271-.112-.566-.155-.874-.172-.54.482-1.265.531-2.006.581-.246.017-.494.034-.714.071-.017.003-.016.002-.019.002-.28.089-.466.674-.574 1.407a9.457 9.457 0 00.051 2.804c.044.248.093.46.146.623a.721.721 0 01-.48.909.748.748 0 01-.225.034 3.692 3.692 0 01-.92-.12l.128.7c.03.167 0 .331-.076.47.165-.028.332-.063.505-.107.656-.168 1.089-.08 1.447.288a.756.756 0 01.05.05c.263.295.386.695.528 1.268.815 3.283.845 6.138-.102 8.672-.126.652.105 1.163.424 1.541.46.544 1.096.86 1.27.941 1.798.847 2.704 1.91 3.062 3.318.337 1.32.15 2.881-.233 4.845a.737.737 0 01-.8.585c.058.556.323 1.18 1.417 1.802.156.09.3.148.428.161a.433.433 0 00.267-.055 1.52 1.52 0 01.532-.167 6.654 6.654 0 01-.189-1.563c0-.817.15-1.593.412-2.278.28-.728.692-1.353 1.193-1.818a.747.747 0 011.043.031c.28.292.264.75-.032 1.025-.34.315-.623.752-.823 1.274a4.668 4.668 0 00-.254.968l4.507-.036a4.662 4.662 0 00-.23-.883c-.189-.512-.459-.946-.783-1.267a.716.716 0 01.003-1.024.747.747 0 011.043.003c.474.468.86 1.084 1.124 1.794.248.668.388 1.421.388 2.212a6.34 6.34 0 01-.423 2.305.731.731 0 01.683.686c.091 1.665-1.802 2.29-3.41 2.82-.532.176-1.025.338-1.31.5-.684.39-1.523.697-2.43.613-.925-.085-1.871-.56-2.711-1.731-.247-.345-.416-.553-.66-.71-.293-.187-.74-.361-1.535-.632a4.3 4.3 0 01-2.352-1.898 4.52 4.52 0 01-.597-1.879.747.747 0 01-.81-.233.72.72 0 01-.156-.352c-.196-1.336-.485-2.352-.864-3.073a4.2 4.2 0 01-.787 1.302l.067.407c.241 1.49.375 2.313 2.11 3.579a.719.719 0 01-.132 1.24c-.793.355-1.562.516-2.288.485.525.61 1.052.995 2.363 1.362 1.381.387 2.285 1.09 2.807 2.018.561 1 .646 2.224.386 3.57-.04.213-.116.4-.223.545a.865.865 0 01-1.179.232 1.305 1.305 0 01-.412-.425c-.09-.14-.12-.19-.155-.246-.399-.65-1.078-1.756-2.035-1.786-.176 1.06-.726 2.2-1.683 3.75a.744.744 0 01-1.01.243.717.717 0 01-.249-.993c1.158-1.874 1.632-3.005 1.507-4.098-.123-1.081-.836-2.284-2.055-4.212.63 3-.13 5.61-1.45 10.155l-.293 1.007a.739.739 0 01-.854.516.738.738 0 01-.855-.516l-.293-1.007c-1.32-4.544-2.079-7.154-1.45-10.155-1.219 1.928-1.931 3.13-2.055 4.212-.125 1.093.35 2.223 1.507 4.098a.717.717 0 01-.248.993.744.744 0 01-1.01-.244c-.958-1.549-1.508-2.688-1.684-3.749-.956.03-1.636 1.136-2.035 1.786-.034.055-.065.106-.155.246a1.312 1.312 0 01-.412.425.865.865 0 01-1.179-.232 1.341 1.341 0 01-.223-.544c-.26-1.347-.175-2.571.386-3.57.522-.93 1.425-1.632 2.807-2.019 1.311-.367 1.84-.753 2.364-1.362-.727.03-1.497-.13-2.288-.485a.719.719 0 01-.132-1.24c1.741-1.273 1.888-2.17 2.136-3.69.033-.203.067-.413.087-.528a5.213 5.213 0 01-.416-.709 4.819 4.819 0 01-.212-.51c-.487.68-.851 1.735-1.07 3.222a.712.712 0 01-.156.352.747.747 0 01-.81.233 4.528 4.528 0 01-.598 1.88 4.3 4.3 0 01-2.352 1.897c-.794.27-1.24.445-1.534.633-.245.156-.413.364-.66.709a4.23 4.23 0 01-.744.758c.03.125.054.246.07.362a2.29 2.29 0 011.89.965 2.21 2.21 0 01.38 1.632 2.287 2.287 0 01-.918 1.492h-.001a2.36 2.36 0 01-1.714.433 2.29 2.29 0 01-1.565-.944 2.21 2.21 0 01-.308-1.943 5.182 5.182 0 01-.898-.538.693.693 0 01-.063-.051c-.672.08-1.334 0-1.907-.327-.689-.393-1.224-.817-1.589-1.4-.37-.592-.542-1.306-.49-2.257a.717.717 0 01.274-.527 7.315 7.315 0 01-.475-1.13c-.137-.435-.198-.834-.179-1.184a1.834 1.834 0 01-1.445-.786 1.77 1.77 0 01-.293-1.289l.01-.055c-.648-.281-1.31-.945-1.946-1.786-.962-1.274-1.907-2.958-2.545-4.099a36.862 36.862 0 00-.547-.958c-.607-.984-2.162-2.506-2.793-3.124-.23-.225-.373-.364-.434-.5a.72.72 0 01.37-.958.744.744 0 01.25-.063l-1.393-1.844-.965.705-.007.001zm9.678 9.658c-.645-.853-1.513-1.783-2.285-2.575.55.956 1.205 2.042 1.849 2.895.64.846 1.191 1.47 1.358 1.349.167-.122-.283-.822-.922-1.669zm2.214 2.925a.395.395 0 00-.441.32.344.344 0 00.065.265.357.357 0 00.237.136.395.395 0 00.441-.32.346.346 0 00-.302-.4zm3.399 3.818c-.542-.586-1.073-1.043-1.531-1.33-.343-.214-.558-.337-.576-.324-.056.041-.005.32.136.768.159.508.462 1.122.903 1.795.35-.352.735-.66 1.068-.91zm4.127 5.593a.873.873 0 00-.635.16.842.842 0 00-.34.55.79.79 0 00.176.635.82.82 0 00.517.282.876.876 0 00.67-.186.842.842 0 00.305-.523.793.793 0 00-.15-.604.814.814 0 00-.542-.313l-.001-.001zm33.754-7.704l-4.632.038c.006.294.033.571.08.828.05.274.122.536.213.782a7.682 7.682 0 011.625.64c.449.24.865.517 1.194.81.036.031.07.064.105.096.347-.232.655-.591.895-1.041h.001c.317-.594.509-1.338.52-2.153zM26.73 46.25a19.583 19.583 0 001.154-.857.745.745 0 011.036.11.716.716 0 01-.113 1.02c-.385.304-.756.585-1.12.837-.365.481-.633 1.093-.865 1.623-.058.132-.113.26-.17.383.266.023.528.027.786.013.875-.047 1.681-.31 2.32-.778.629-.46 1.101-1.126 1.326-1.988.123-.468.174-.998.141-1.593a.73.73 0 01.698-.76.733.733 0 01.775.686 6.551 6.551 0 01-.187 2.023c-.315 1.209-.982 2.145-1.868 2.795-.875.641-1.96.998-3.13 1.061a7.455 7.455 0 01-2.176-.215.743.743 0 01-.4-.215.717.717 0 01.032-1.024c.112-.104.256-.414.423-.793a6.27 6.27 0 01-.843.225c-1.481.286-3.072.023-5.125-.949a.718.718 0 01-.096-1.28c.203-.125.479-.44.805-.815l.203-.232c-.076 0-.148-.003-.219-.008-.79-.066-1.58-.33-2.314-.705a9.464 9.464 0 01-2.158-1.534.721.721 0 01.306-1.262c.278-.064.69-.307 1.178-.594l.243-.142a5.066 5.066 0 01-.06-.02c-.745-.274-1.435-.737-2.036-1.288a9.335 9.335 0 01-1.687-2.092.713.713 0 01-.098-.389.731.731 0 01.762-.698c.295.012.784-.095 1.363-.222.725-.158 1.57-.342 2.479-.404l-.255-.171a.89.89 0 01-.061-.046c-.767-.637-1.235-1.543-1.485-2.526-.286-1.122-.287-2.362-.125-3.4a.714.714 0 01.182-.419.748.748 0 011.042-.065c.439.38 1.735 1.03 3.085 1.691a5.693 5.693 0 01-.315-1.308c-.146-1.168.014-2.42.312-3.438h.003a.715.715 0 01.22-.343.745.745 0 011.04.062c1 1.108 2.314 2.293 3.628 3.479 2.271 2.05 4.543 4.098 5.464 5.997.295.61.401 1.11.367 1.615-.032.485-.192.924-.432 1.45-.493 1.08-.735 1.693-.617 2.013.116.315.681.603 1.814 1.06a.72.72 0 01.4.946.741.741 0 01-.96.394c-1.542-.622-2.343-1.1-2.64-1.906-.295-.802.005-1.668.658-3.097.173-.38.287-.68.306-.951.017-.253-.05-.53-.229-.9-.8-1.649-2.964-3.602-5.128-5.555-.943-.85-1.886-1.701-2.736-2.546a6.611 6.611 0 00-.001 1.544c.089.713.318 1.373.748 1.848l3.161 2.732a.718.718 0 01.067 1.025.748.748 0 01-1.043.065l-1.236-1.068c-.559-.38-1.78-.976-3.031-1.588-.985-.481-1.989-.972-2.761-1.404-.006.57.05 1.161.19 1.715.179.699.49 1.328.98 1.748l2.85 1.912c.175.08.35.17.524.27.166.094.28.241.334.408a.715.715 0 01-.044.747.745.745 0 01-1.024.19l-.507-.34c-1.702-.72-3.548-.318-4.904-.022-.148.032-.29.064-.43.092.235.293.496.576.777.834.473.434 1 .792 1.545.993.6.22 1.826.15 2.985.036.088-.012.177-.022.267-.032l.08-.003.677-.074a44.34 44.34 0 011.019-.106.735.735 0 01.797.664.73.73 0 01-.676.783c-.302.025-.624.06-.98.1a61.66 61.66 0 01-1.031.11c-1.21.184-2.248.795-3.078 1.283-.142.084-.279.165-.412.24.314.228.652.44 1.005.62.572.291 1.176.497 1.76.545.838.07 2.562-.616 3.84-1.125.323-.128.617-.245.954-.368a.74.74 0 01.947.425.72.72 0 01-.433.931c-.192.07-.536.207-.914.358-.275.11-.569.226-.872.343a.673.673 0 01-.096.05c-1.064.471-1.817 1.335-2.411 2.016l-.227.26c1.274.483 2.303.598 3.24.418.824-.16 1.615-.552 2.463-1.13h-.002zm12.09 11.275c-.222 1.324-.455 2.272-1.574 3.363.22.022.433.019.637-.01.51-.07.98-.302 1.393-.697.578-.9.626-1.18.366-2.87a6.74 6.74 0 01-.543.186.75.75 0 01-.28.028zm-2.292 7.337a12.21 12.21 0 01-.778.245c-.97.272-1.586.73-1.918 1.32-.205.366-.313.794-.339 1.27.593-.783 1.436-1.554 2.66-1.541.067-.425.193-.848.375-1.294zm5.213-4.319c-1.402 3.487-.846 5.908.503 10.583 1.35-4.676 1.906-7.096.504-10.583l-.027.023a.748.748 0 01-.963-.008l-.017-.015zm-3.58-6.273c.041.254.137.533.27.807.167.346.384.667.618.908.403-.151.71-.324.96-.533.229-.191.424-.425.613-.71l-.314-.184c-.819-.321-1.542-.432-2.147-.29v.002zm3.759 1.168a4.877 4.877 0 01-.857 1.03v.033c.004.586.095 1.054.331 1.492.182.337.458.674.85 1.046.394-.372.67-.708.852-1.046.235-.437.326-.906.33-1.492v-.034a4.9 4.9 0 01-.884-1.072l-.007.003a.747.747 0 01-.615.04zm-10.288 2.75c.024 1.052.045 2.353-2.162 3.609-.325.184-.661.31-1.011.349a1.874 1.874 0 01-1.15-.238.815.815 0 00-.557-.106c-.218.039-.445.16-.671.327-.468.344-1.105.836-1.475 1.371-.242.348-.355.727-.132 1.083.062.038.126.076.193.114.439.25 1.077.184 1.713-.03.925-.315 1.779-.915 2.117-1.389.353-.492.608-.797 1.065-1.09.409-.262.941-.474 1.858-.785a2.84 2.84 0 001.555-1.251c.321-.547.471-1.227.4-1.988a2.548 2.548 0 00-.696-.123 3.45 3.45 0 00-1.047.146zm3.053-8.85c-.58 1.135-1.575 1.818-1.874 1.958-1.348.635-2.017 1.39-2.265 2.364-.223.877-.142 1.975.087 3.329.738-.275 1.418-.416 2.09-.395.63.021 1.23.18 1.836.497.415-1.816 1.115-3.01 2.048-3.68a3.446 3.446 0 011.217-.558c-1.352-1.09-2.389-2.256-3.139-3.516zm6.275 3.917a25.453 25.453 0 001.223.688 25.922 25.922 0 001.62-.93c2.527-1.58 4.193-3.317 5.122-5.28.094-.199.18-.4.26-.603.053-.228.134-.465.243-.71.63-2.111.54-4.5-.14-7.241-.088-.356-.152-.59-.205-.65l-.014-.016c-.013-.005.052.105-.006.12-1.527.392-2.829.245-4.041-.27-.978-.416-1.875-1.067-2.781-1.864-.906.797-1.803 1.448-2.781 1.864-1.213.516-2.514.662-4.042.27-.066-.016.033-.165-.02-.107v.004c-.053.06-.116.293-.204.65-.827 3.329-.812 6.142.307 8.563.952 2.06 2.717 3.87 5.458 5.514l.001-.002zm5.957-15.875a.723.723 0 01-.1-.257l-.373-2.04a3.257 3.257 0 01-.553-1.027.721.721 0 01.477-.91.739.739 0 01.926.468 1.73 1.73 0 00.814.994c-.119-.885-.139-1.96-.002-2.893.182-1.244.664-2.292 1.59-2.582.08-.025.151-.042.215-.053.289-.048.578-.068.865-.088.409-.027.81-.055 1.034-.166a2.24 2.24 0 01.089-.542c.157-.541.504-1.008.937-1.353a3.07 3.07 0 01.722-.426c-.429-.465-.843-.824-1.264-1.031-.585-.287-1.25-.26-2.114.24-1.468.85-3.074.8-4.705.749l-.39-.012c.122.096.244.188.367.273.516.356 1.049.603 1.59.643a.73.73 0 01.682.778c-.03.4-.384.7-.791.67a4.041 4.041 0 01-1.24-.302c-.954 1.015-1.559 2.018-1.944 3.121-.38 1.087-.55 2.285-.634 3.69.836.747 1.645 1.35 2.493 1.711a4.55 4.55 0 001.312.346h-.003zm2.68 12.173c-.702 1.1-1.625 2.128-2.791 3.095.458.123.88.346 1.27.676.85.721 1.47 1.956 1.858 3.764a4.166 4.166 0 011.83-.493c.673-.022 1.353.12 2.09.394.23-1.354.31-2.451.087-3.328-.248-.974-.916-1.73-2.265-2.364-.239-.113-1.11-.545-1.767-1.322a4.033 4.033 0 01-.313-.422zm-5.117 4.752c-.21.13-.426.26-.648.387.2.308.405.559.646.76.27.226.606.41 1.058.569.258-.169.497-.446.685-.762.232-.394.37-.82.346-1.154-.562-.2-1.259-.123-2.087.2zm-13.41-25.85a1.418 1.418 0 00-.348-.394 1.485 1.485 0 00-.714-.321.76.76 0 00-.102-.007c-.244.354-.399.82-.46 1.271l-.014.106c.24-.177.483-.311.73-.413.307-.127.608-.2.908-.242zm26.645 17.767a.33.33 0 01.043.03c.85.576 1.639.97 2.463 1.128.938.181 1.966.066 3.24-.418l-.227-.26c-.594-.68-1.347-1.544-2.411-2.015a.752.752 0 01-.096-.05 69.976 69.976 0 01-.871-.344 43.43 43.43 0 00-.915-.357.72.72 0 01-.433-.931.74.74 0 01.948-.426c.337.123.63.24.954.369 1.278.508 3.002 1.195 3.84 1.125.584-.049 1.188-.254 1.76-.546a7.58 7.58 0 001.004-.62 48 48 0 01-.411-.239c-.83-.489-1.868-1.1-3.079-1.284-.358-.035-.706-.074-1.031-.11a35.91 35.91 0 00-.98-.1.73.73 0 01-.675-.783c.033-.4.39-.697.796-.664.26.021.622.062 1.02.106.215.025.442.05.675.074.028 0 .055 0 .082.004.09.01.18.02.267.032 1.157.113 2.384.183 2.984-.037.546-.2 1.072-.558 1.545-.992.282-.259.542-.542.777-.834l-.43-.092c-1.355-.296-3.201-.698-4.904.022l-.506.34a.745.745 0 01-1.025-.19.715.715 0 01-.043-.748.725.725 0 01.333-.408c.175-.1.35-.19.525-.27l2.85-1.912c.49-.42.8-1.049.978-1.748a6.731 6.731 0 00.192-1.715c-.773.433-1.777.923-2.761 1.404-1.253.612-2.474 1.208-3.032 1.589l-1.236 1.068a.748.748 0 01-1.042-.065.718.718 0 01.066-1.025l3.161-2.733c.43-.476.66-1.135.749-1.847a6.606 6.606 0 00-.002-1.544c-.85.845-1.792 1.695-2.735 2.546-2.165 1.953-4.33 3.905-5.13 5.555-.179.37-.244.647-.227.9.018.271.132.57.305.95.653 1.43.953 2.295.658 3.097-.297.807-1.098 1.283-2.64 1.907a.74.74 0 01-.96-.395.72.72 0 01.4-.945c1.132-.457 1.698-.745 1.814-1.06.118-.32-.124-.933-.617-2.013-.24-.526-.4-.965-.432-1.45-.034-.506.071-1.006.367-1.615.921-1.9 3.193-3.95 5.464-5.998 1.314-1.185 2.628-2.37 3.629-3.478a.745.745 0 011.04-.063.72.72 0 01.22.344h.002c.298 1.017.459 2.27.313 3.438a5.696 5.696 0 01-.316 1.308c1.351-.662 2.646-1.312 3.085-1.692a.748.748 0 011.043.066.72.72 0 01.181.419c.161 1.038.16 2.277-.124 3.4-.25.983-.719 1.888-1.485 2.525a.89.89 0 01-.062.046l-.255.171c.91.063 1.755.247 2.48.405.579.126 1.067.232 1.362.222a.732.732 0 01.763.698.708.708 0 01-.1.388c-.42.712-1 1.463-1.686 2.092-.601.552-1.29 1.015-2.036 1.288l-.06.02.243.142c.487.287.9.53 1.178.595a.726.726 0 01.549.874.724.724 0 01-.242.388 9.46 9.46 0 01-2.159 1.534c-.733.374-1.524.639-2.314.704-.07.006-.144.009-.219.009l.203.232c.326.374.602.69.805.814a.718.718 0 01-.096 1.28c-2.052.973-3.643 1.235-5.125.95a6.309 6.309 0 01-.843-.226c.167.38.312.69.423.793.297.274.31.733.032 1.025a.737.737 0 01-.4.215 7.432 7.432 0 01-2.176.215c-1.169-.063-2.255-.42-3.13-1.062-.887-.65-1.553-1.586-1.868-2.794a6.552 6.552 0 01-.186-2.024.73.73 0 01.774-.686.73.73 0 01.698.76 5.154 5.154 0 00.14 1.593c.226.863.698 1.528 1.326 1.988.64.47 1.445.732 2.321.779.258.013.52.01.786-.013-.056-.123-.112-.251-.17-.383-.232-.53-.5-1.142-.865-1.623a22.212 22.212 0 01-1.12-.838.716.716 0 01-.112-1.019.746.746 0 011.036-.11c.385.305.753.582 1.11.827h-.002zm-12.502 13.96c.411.394.881.627 1.392.697.202.028.413.031.63.01-1.13-1.092-1.335-2.006-1.557-3.361a.756.756 0 01-.345-.048 7.287 7.287 0 01-.486-.168c-.26 1.69-.213 1.97.366 2.87zm3.123 5.974c1.223-.013 2.067.758 2.66 1.542-.026-.477-.135-.905-.34-1.27-.331-.591-.946-1.049-1.917-1.321-.288-.08-.546-.162-.778-.245.182.446.307.87.375 1.294zm12.3-2.756a1.922 1.922 0 00-.237-.243 4.804 4.804 0 00-.91-.61c-.914-.488-1.967-.831-2.31-.639a1.888 1.888 0 01-1.148.237 2.6 2.6 0 01-1.012-.348c-2.206-1.256-2.187-2.557-2.162-3.61a3.451 3.451 0 00-1.046-.145 2.52 2.52 0 00-.697.122c-.071.76.08 1.441.4 1.988a2.844 2.844 0 001.556 1.252c.916.311 1.45.523 1.858.785.457.292.712.598 1.065 1.09.551.77 1.113 1.075 1.637 1.123.543.05 1.092-.16 1.557-.425.38-.216.89-.392 1.449-.576zM54.58 27.733a.84.84 0 00-.1.007 1.48 1.48 0 00-.715.32 1.433 1.433 0 00-.349.394c.3.042.602.115.91.242.246.102.489.237.728.414-.003-.035-.008-.07-.013-.107-.062-.45-.217-.916-.46-1.27zM39.363 8.496c0 .25.207.453.462.453h1.2v1.006a4.84 4.84 0 00-2.788 1.187c-.857.763-1.388 1.821-1.388 2.992 0 .402.331.727.74.727a.733.733 0 00.739-.727c0-.747.342-1.426.896-1.92a3.336 3.336 0 011.801-.798v1.092c0 .25.207.454.462.454a.457.457 0 00.462-.454v-1.092a3.325 3.325 0 011.8.798c.555.494.897 1.173.897 1.92 0 .402.331.727.74.727a.733.733 0 00.739-.727c0-1.17-.53-2.228-1.388-2.992a4.847 4.847 0 00-2.788-1.187V8.95h1.2a.458.458 0 00.462-.453.457.457 0 00-.462-.454h-1.2V6.454A.458.458 0 0041.487 6a.457.457 0 00-.462.454v1.588h-1.2a.458.458 0 00-.462.454z"
              fill="currentColor"/>
        <path d="M43.659 14.803c-.587-.108-1.382-.176-2.245-.176-.863 0-1.657.068-2.244.176-.913.17-1.477.55-1.477 1.103 0 .553.564.935 1.477 1.103.587.11 1.381.177 2.244.177.863 0 1.658-.068 2.245-.177.912-.168 1.477-.55 1.477-1.103 0-.552-.565-.934-1.477-1.103zm-13.145-.252c0 .25.207.454.462.454h1.2v1.006a4.841 4.841 0 00-2.789 1.186C28.53 17.96 28 19.02 28 20.19c0 .401.331.727.74.727a.733.733 0 00.739-.727c0-.747.342-1.427.896-1.92a3.335 3.335 0 011.801-.798v1.091c0 .251.207.454.462.454a.457.457 0 00.462-.454v-1.091a3.324 3.324 0 011.8.798c.555.493.897 1.173.897 1.92 0 .401.331.727.74.727a.733.733 0 00.739-.727c0-1.17-.53-2.229-1.388-2.993a4.846 4.846 0 00-2.788-1.186v-1.006h1.2a.458.458 0 00.462-.454.458.458 0 00-.462-.454h-1.2V12.51a.457.457 0 00-.462-.454.457.457 0 00-.462.454v1.588h-1.2a.458.458 0 00-.462.454z"
              fill="currentColor"/>
        <path d="M34.81 20.859c-.587-.109-1.382-.177-2.245-.177-.863 0-1.657.068-2.244.177-.913.169-1.477.55-1.477 1.103 0 .553.564.934 1.477 1.103.587.109 1.381.176 2.244.176.863 0 1.658-.067 2.245-.176.912-.169 1.477-.55 1.477-1.103 0-.553-.565-.934-1.477-1.103zm13.16-6.308c0 .25.206.454.461.454h1.2v1.006a4.841 4.841 0 00-2.788 1.186c-.857.763-1.388 1.822-1.388 2.993 0 .401.331.727.74.727a.733.733 0 00.739-.727c0-.747.342-1.427.896-1.92a3.336 3.336 0 011.801-.798v1.091c0 .251.207.454.462.454a.457.457 0 00.462-.454v-1.091a3.325 3.325 0 011.8.798c.555.493.897 1.173.897 1.92 0 .401.331.727.74.727a.733.733 0 00.739-.727c0-1.17-.53-2.229-1.388-2.993a4.846 4.846 0 00-2.788-1.186v-1.006h1.2a.458.458 0 00.462-.454.458.458 0 00-.462-.454h-1.2V12.51a.457.457 0 00-.462-.454.457.457 0 00-.462.454v1.588h-1.2a.458.458 0 00-.462.454z"
              fill="currentColor"/>
        <path d="M52.265 20.859c-.587-.109-1.382-.176-2.245-.176-.863 0-1.657.067-2.244.176-.913.169-1.477.55-1.477 1.103 0 .553.564.934 1.477 1.103.587.109 1.381.176 2.244.176.863 0 1.658-.067 2.245-.176.912-.169 1.477-.55 1.477-1.103 0-.553-.565-.934-1.477-1.103z"
              fill="currentColor"/>
    </symbol>
    <symbol fill="none" viewBox="0 0 20 20" id="search" xmlns="http://www.w3.org/2000/svg">
        <g clip-path="url(#cmclip0_101_1723)" fill="#000">
            <path d="M8.808 0C3.95 0 0 3.951 0 8.808c0 4.856 3.951 8.807 8.808 8.807 4.856 0 8.807-3.95 8.807-8.807S13.665 0 8.808 0zm0 15.99c-3.96 0-7.182-3.223-7.182-7.182 0-3.96 3.222-7.182 7.182-7.182 3.96 0 7.181 3.222 7.181 7.182 0 3.96-3.222 7.181-7.181 7.181z"/>
            <path d="M19.762 18.612L15.1 13.951a.812.812 0 10-1.15 1.15l4.662 4.66a.81.81 0 001.15 0 .813.813 0 000-1.149z"/>
        </g>
        <defs>
            <clipPath id="cmclip0_101_1723">
                <path fill="#fff" d="M0 0h20v20H0z"/>
            </clipPath>
        </defs>
    </symbol>
    <symbol fill="none" viewBox="0 0 24 24" id="share-dots" xmlns="http://www.w3.org/2000/svg">
        <path d="M6 10c-1.1 0-2 .9-2 2s.9 2 2 2 2-.9 2-2-.9-2-2-2zm12 0c-1.1 0-2 .9-2 2s.9 2 2 2 2-.9 2-2-.9-2-2-2zm-6 0c-1.1 0-2 .9-2 2s.9 2 2 2 2-.9 2-2-.9-2-2-2z"
              fill="#999"/>
    </symbol>
    <symbol fill="none" viewBox="0 0 16 16" id="share-facebook" xmlns="http://www.w3.org/2000/svg">
        <path d="M10.665 2.657h1.46V.113A18.862 18.862 0 009.999 0c-2.107 0-3.55 1.325-3.55 3.76V6H4.125v2.844h2.324V16h2.85V8.845h2.23L11.881 6H9.298V4.04c0-.822.222-1.384 1.367-1.384z"
              fill="#999"/>
    </symbol>
    <symbol fill="none" viewBox="0 0 16 16" id="share-instagram" xmlns="http://www.w3.org/2000/svg">
        <g clip-path="url(#cpclip0_477_19497)" fill="#999">
            <path d="M15.984 4.704c-.038-.85-.175-1.435-.372-1.941a3.905 3.905 0 00-.926-1.419 3.937 3.937 0 00-1.415-.922C12.76.225 12.18.088 11.33.05 10.473.01 10.2 0 8.029 0S5.585.01 4.73.047c-.85.037-1.434.175-1.94.372a3.904 3.904 0 00-1.42.925A3.94 3.94 0 00.45 2.76C.252 3.27.115 3.85.077 4.7c-.04.857-.05 1.13-.05 3.302s.01 2.444.047 3.297c.038.85.175 1.435.372 1.941.203.538.519 1.019.925 1.42.4.405.885.721 1.416.921.51.197 1.091.335 1.941.372.854.038 1.126.047 3.298.047s2.444-.01 3.297-.047c.85-.037 1.435-.175 1.941-.372a4.092 4.092 0 002.341-2.34c.197-.51.335-1.092.372-1.942.038-.853.047-1.125.047-3.297 0-2.173-.003-2.445-.04-3.298zm-1.441 6.533c-.035.781-.166 1.203-.275 1.484a2.654 2.654 0 01-1.52 1.52c-.28.109-.706.24-1.484.274-.844.038-1.097.047-3.232.047-2.135 0-2.391-.01-3.232-.047-.781-.034-1.203-.165-1.485-.275a2.462 2.462 0 01-.918-.597 2.488 2.488 0 01-.597-.919c-.11-.28-.241-.706-.275-1.484-.038-.844-.047-1.097-.047-3.232 0-2.135.009-2.391.047-3.232.034-.781.165-1.203.275-1.485a2.42 2.42 0 01.6-.919c.26-.265.572-.469.919-.597.28-.109.706-.24 1.484-.275.844-.037 1.097-.047 3.232-.047 2.138 0 2.391.01 3.232.047.782.035 1.203.166 1.485.275.347.128.662.332.919.597.265.26.469.572.597.92.11.28.24.706.275 1.484.037.844.047 1.097.047 3.232 0 2.135-.01 2.385-.047 3.229z"/>
            <path d="M8.028 3.892a4.111 4.111 0 000 8.22 4.111 4.111 0 000-8.22zm0 6.776a2.667 2.667 0 11.001-5.333 2.667 2.667 0 010 5.333zm5.235-6.938a.96.96 0 11-1.92-.001.96.96 0 011.92 0z"/>
        </g>
        <defs>
            <clipPath id="cpclip0_477_19497">
                <path fill="#fff" d="M0 0h16v16H0z"/>
            </clipPath>
        </defs>
    </symbol>
    <symbol fill="none" viewBox="0 0 16 16" id="share-odnoklassniki" xmlns="http://www.w3.org/2000/svg">
        <path d="M3.147 8.587c-.408.803.056 1.187 1.114 1.843.9.556 2.144.76 2.942.841l-3.147 3.027c-.916.878.559 2.287 1.474 1.428l2.478-2.39c.949.912 1.858 1.787 2.478 2.393.916.863 2.39-.534 1.484-1.427l-3.157-3.028c.808-.08 2.033-.296 2.922-.84 1.058-.66 1.522-1.044 1.12-1.847-.244-.456-.9-.837-1.773-.178 0 0-1.18.903-3.081.903-1.903 0-3.082-.903-3.082-.903-.872-.663-1.531-.278-1.772.178z"
              fill="#999"/>
        <path d="M7.998 8.095c2.318 0 4.212-1.812 4.212-4.043C12.21 1.812 10.316 0 7.998 0c-2.32 0-4.213 1.812-4.213 4.052 0 2.23 1.893 4.043 4.213 4.043zm0-6.042c1.14 0 2.068.894 2.068 1.999 0 1.096-.929 1.99-2.068 1.99-1.14 0-2.069-.894-2.069-1.99 0-1.106.929-2 2.069-2z"
              fill="#999"/>
    </symbol>
    <symbol fill="none" viewBox="0 0 16 16" id="share-twitter" xmlns="http://www.w3.org/2000/svg">
        <path d="M14.356 6.242A6.547 6.547 0 0016 4.539a6.85 6.85 0 01-1.89.518 3.263 3.263 0 001.443-1.813 6.563 6.563 0 01-2.08.794A3.28 3.28 0 007.8 6.281c0 .26.022.51.076.748a9.287 9.287 0 01-6.761-3.432 3.308 3.308 0 00-.45 1.658c0 1.136.585 2.143 1.458 2.726A3.242 3.242 0 01.64 7.577v.036a3.296 3.296 0 002.628 3.224 3.263 3.263 0 01-.86.108c-.21 0-.422-.012-.62-.056a3.312 3.312 0 003.064 2.285 6.593 6.593 0 01-4.067 1.399c-.269 0-.527-.012-.785-.045A9.237 9.237 0 005.032 16c5.789 0 9.561-4.83 9.324-9.758z"
              fill="#999"/>
    </symbol>
    <symbol fill="none" viewBox="0 0 16 16" id="share-vk" xmlns="http://www.w3.org/2000/svg">
        <path d="M15.857 11.578c-.043-.072-.309-.65-1.589-1.838-1.34-1.244-1.16-1.042.454-3.193.983-1.31 1.376-2.11 1.253-2.452-.117-.326-.84-.24-.84-.24l-2.404.014s-.178-.024-.31.055c-.13.078-.213.258-.213.258s-.38 1.014-.889 1.876c-1.071 1.819-1.5 1.915-1.675 1.802-.407-.263-.305-1.058-.305-1.622 0-1.763.267-2.498-.521-2.688-.262-.063-.454-.105-1.123-.112-.858-.01-1.585.003-1.996.204-.274.134-.485.433-.356.45.159.02.519.097.71.357.247.335.238 1.089.238 1.089s.142 2.075-.331 2.333c-.325.177-.77-.184-1.725-1.835-.49-.845-.86-1.78-.86-1.78s-.07-.174-.198-.267a.997.997 0 00-.37-.15l-2.286.015s-.343.01-.469.159c-.112.133-.009.407-.009.407s1.79 4.187 3.817 6.298c1.859 1.935 3.969 1.808 3.969 1.808h.956s.289-.032.436-.19c.136-.147.13-.42.13-.42s-.018-1.284.578-1.473c.587-.186 1.341 1.24 2.14 1.79.604.414 1.063.323 1.063.323l2.137-.03s1.118-.069.588-.948z"
              fill="#fff"/>
    </symbol>
    <symbol fill="none" viewBox="0 0 32 32" id="shield" xmlns="http://www.w3.org/2000/svg">
        <g clip-path="url(#ctclip0_643_21979)" fill="#000">
            <path d="M21.27 12.096a1.067 1.067 0 00-1.508 0l-5.931 5.93-1.592-1.591a1.067 1.067 0 00-1.509 1.508l2.347 2.346a1.067 1.067 0 001.508 0l6.685-6.685a1.066 1.066 0 000-1.508z"/>
            <path d="M28.637 7.344L16.544.15c-.335-.2-.754-.2-1.09 0L3.36 7.344c-.323.192-.521.54-.521.917v4.106c0 8.65 4.997 16.55 12.774 19.561.248.096.523.096.77 0 7.758-3.003 12.774-10.886 12.774-19.56V8.26c0-.376-.198-.725-.52-.917zm-1.612 5.023c0 7.96-4.59 14.739-11.026 17.417-6.44-2.68-11.026-9.462-11.026-17.417v-3.5L16 2.307l11.026 6.56v3.5z"/>
        </g>
        <defs>
            <clipPath id="ctclip0_643_21979">
                <path fill="#fff" d="M0 0h32v32H0z"/>
            </clipPath>
        </defs>
    </symbol>
    <symbol fill="none" viewBox="0 0 40 40" id="shopping-bag" xmlns="http://www.w3.org/2000/svg">
        <rect width="40" height="40" rx="20" fill="currentColor"/>
        <path d="M28.25 14.75h-16.5a.75.75 0 00-.75.75v12c0 .414.336.75.75.75h16.5a.75.75 0 00.75-.75v-12a.75.75 0 00-.75-.75z"
              stroke="#fff" stroke-linecap="round" stroke-linejoin="round"/>
        <path d="M16.25 17.75v-3a3.75 3.75 0 017.5 0v3" stroke="#fff" stroke-linecap="round" stroke-linejoin="round"/>
    </symbol>
    <symbol fill="none" viewBox="0 0 34 34" id="smartphone" xmlns="http://www.w3.org/2000/svg">
        <circle cx="17" cy="17" r="17" fill="currentColor"/>
        <path d="M11.5 9.781a2.407 2.407 0 012.406-2.406h6.188A2.407 2.407 0 0122.5 9.781V24.22a2.406 2.406 0 01-2.406 2.406h-6.188A2.406 2.406 0 0111.5 24.22V9.78zM15.625 22.5a.687.687 0 100 1.375h2.75a.687.687 0 100-1.375h-2.75z"
              fill="#fff"/>
    </symbol>
    <symbol fill="none" viewBox="0 0 20 20" id="sort" xmlns="http://www.w3.org/2000/svg">
        <path d="M13.106 20V.184h.892v17.663l4.412-4.411.63.63L13.106 20zm-6.246-.184h-.892V2.153L1.556 6.564l-.63-.63L6.86 0v19.816z"
              fill="currentColor"/>
    </symbol>
    <symbol viewBox="0 0 50 50" id="star" xmlns="http://www.w3.org/2000/svg">
        <path fill="none" d="M0 0h50v50H0z"/>
        <path fill="none" stroke="#000" stroke-miterlimit="10" stroke-width="2"
              d="M25 3.553l5.695 14.768 15.805.852-12.286 9.979 4.073 15.295L25 35.848l-13.288 8.599 4.074-15.295L3.5 19.173l15.805-.852z"/>
    </symbol>
    <symbol fill="none" viewBox="0 0 20 20" id="telegram" xmlns="http://www.w3.org/2000/svg">
        <path d="M10 0C4.48 0 0 4.48 0 10s4.48 10 10 10 10-4.48 10-10S15.52 0 10 0zm4.64 6.8c-.15 1.58-.8 5.42-1.13 7.19-.14.75-.42 1-.68 1.03-.58.05-1.02-.38-1.58-.75-.88-.58-1.38-.94-2.23-1.5-.99-.65-.35-1.01.22-1.59.15-.15 2.71-2.48 2.76-2.69a.2.2 0 00-.05-.18c-.06-.05-.14-.03-.21-.02-.09.02-1.49.95-4.22 2.79-.4.27-.76.41-1.08.4-.36-.01-1.04-.2-1.55-.37-.63-.2-1.12-.31-1.08-.66.02-.18.27-.36.74-.55 2.92-1.27 4.86-2.11 5.83-2.51 2.78-1.16 3.35-1.36 3.73-1.36.08 0 .27.02.39.12.1.08.13.19.14.27-.01.06.01.24 0 .38z"
              fill="currentColor"/>
    </symbol>
    <symbol fill="none" viewBox="0 0 24 24" id="telegram-dark" xmlns="http://www.w3.org/2000/svg">
        <path d="M12 24c6.629 0 12-5.371 12-12S18.629 0 12 0 0 5.371 0 12s5.371 12 12 12zM5.491 11.74l11.57-4.461c.537-.194 1.006.131.832.943l.001-.001-1.97 9.281c-.146.658-.537.818-1.084.508l-3-2.211-1.447 1.394c-.16.16-.295.295-.605.295l.213-3.053 5.56-5.023c.242-.213-.054-.333-.373-.121l-6.871 4.326-2.962-.924c-.643-.204-.657-.643.136-.953z"
              fill="#000"/>
    </symbol>
    <symbol fill="none" viewBox="0 0 24 24" id="telegram-line" xmlns="http://www.w3.org/2000/svg">
        <path d="M12 24c6.617 0 12-5.383 12-12S18.617 0 12 0 0 5.383 0 12s5.383 12 12 12zm0-22.5c5.79 0 10.5 4.71 10.5 10.5S17.79 22.5 12 22.5 1.5 17.79 1.5 12 6.21 1.5 12 1.5z"
              fill="#000"/>
        <path d="M7.896 14.155l1.568-.681-.44.441a.75.75 0 00-.22.53v2.935c0 .672.812.998 1.28.53l1.574-1.574 3.43 1.715a.75.75 0 001.073-.537l1.957-10.761a.751.751 0 00-1.012-.833L4.39 10.897a.75.75 0 00-.13 1.331L7.194 14.1c.21.134.475.155.702.055zm8.506-6.347l-1.537 8.455-3.02-1.509a.748.748 0 00-.865.141l-.676.676v-.813l3.007-3.007c.583-.583-.073-1.545-.829-1.218l-4.817 2.09-1.354-.864 10.091-3.951z"
              fill="#000"/>
    </symbol>
    <symbol viewBox="0 0 100 100" id="texting" xmlns="http://www.w3.org/2000/svg">
        <switch>
            <g>
                <path d="M68.2 15.2H31.8c-16.1 0-29.3 13.1-29.3 29.3 0 9.7 4.8 18.7 12.7 24.2-1.3 2.5-2.6 4.7-3.9 6.5-1.5 2.1-1.6 4.8-.1 7 1.2 1.7 3 2.6 5 2.6.5 0 1.1-.1 1.6-.2C27.4 82 36.1 77.4 42 73.8h26.3c16.1 0 29.3-13.1 29.3-29.3S84.4 15.2 68.2 15.2zm0 53.2h-27c-.5 0-1 .1-1.4.4-4.5 2.8-13.6 7.9-23.4 10.6-.3.1-.5 0-.7-.3-.2-.3-.2-.5 0-.8 1.9-2.6 3.8-5.8 5.5-9.5.6-1.3.1-2.8-1.1-3.5-7.5-4.2-12.2-12.2-12.2-20.8 0-13.2 10.7-23.9 23.9-23.9h36.5c13.2 0 23.9 10.7 23.9 23.9s-10.8 23.9-24 23.9z"/>
                <path d="M33.3 39.1h-7.2c-1 0-1.8.8-1.8 1.8v7.2c0 1 .8 1.8 1.8 1.8h7.2c1 0 1.8-.8 1.8-1.8v-7.2c0-1-.8-1.8-1.8-1.8zm20.3 0h-7.2c-1 0-1.8.8-1.8 1.8v7.2c0 1 .8 1.8 1.8 1.8h7.2c1 0 1.8-.8 1.8-1.8v-7.2c0-1-.8-1.8-1.8-1.8zm20.3 0h-7.2c-1 0-1.8.8-1.8 1.8v7.2c0 1 .8 1.8 1.8 1.8h7.2c1 0 1.8-.8 1.8-1.8v-7.2c0-1-.8-1.8-1.8-1.8z"/>
            </g>
        </switch>
    </symbol>
    <symbol fill="none" viewBox="0 0 40 40" id="user" xmlns="http://www.w3.org/2000/svg">
        <path d="M20 23a6 6 0 100-12 6 6 0 000 12z" stroke="#000" stroke-miterlimit="10"/>
        <path d="M10.906 28.25a10.502 10.502 0 0118.188 0" stroke="#000" stroke-linecap="round"
              stroke-linejoin="round"/>
        <rect x=".5" y=".5" width="39" height="39" rx="19.5" stroke="#000" stroke-opacity=".1"/>
    </symbol>
    <symbol fill="none" viewBox="0 0 24 24" id="user-simple" xmlns="http://www.w3.org/2000/svg">
        <path d="M12 15a6 6 0 100-12 6 6 0 000 12z" stroke="currentColor" stroke-miterlimit="10"/>
        <path d="M2.906 20.25a10.5 10.5 0 0118.188 0" stroke="currentColor" stroke-linecap="round"
              stroke-linejoin="round"/>
    </symbol>
    <symbol fill="none" viewBox="0 0 34 34" id="vk" xmlns="http://www.w3.org/2000/svg">
        <circle cx="17" cy="17" r="17" fill="currentColor"/>
        <path fill-rule="evenodd" clip-rule="evenodd"
              d="M27.482 11.903c.163-.51 0-.88-.722-.88h-2.4c-.605 0-.885.325-1.048.671 0 0-1.235 2.961-2.96 4.881-.558.555-.815.74-1.118.74-.163 0-.373-.185-.373-.693v-4.743c0-.601-.186-.879-.699-.879h-3.774c-.374 0-.606.278-.606.555 0 .579.862.718.955 2.337v3.518c0 .763-.138.903-.443.903-.815 0-2.796-2.985-3.984-6.385-.23-.673-.465-.928-1.071-.928H6.815c-.699 0-.815.324-.815.67 0 .626.815 3.771 3.798 7.935 1.98 2.844 4.8 4.372 7.34 4.372 1.537 0 1.723-.347 1.723-.925V20.9c0-.693.14-.809.63-.809.349 0 .978.185 2.4 1.55C23.52 23.26 23.8 24 24.71 24h2.4c.698 0 1.025-.348.838-1.019-.21-.67-1.002-1.642-2.027-2.798-.56-.648-1.398-1.365-1.654-1.712-.35-.463-.256-.648 0-1.064-.023 0 2.913-4.118 3.215-5.507"
              fill="#fff"/>
    </symbol>
    <symbol viewBox="0 0 100 100" id="wedding" xmlns="http://www.w3.org/2000/svg">
        <path d="M59.177 10c-8.234 0-15.974 3.206-21.795 9.028a30.714 30.714 0 00-7.164 11.202 30.532 30.532 0 00-11.19 7.152C13.206 43.203 10 50.943 10 59.177s3.206 15.973 9.028 21.795C24.85 86.794 32.59 90 40.823 90s15.974-3.206 21.795-9.028a30.715 30.715 0 007.165-11.205 30.526 30.526 0 0011.189-7.149C86.794 56.797 90 49.057 90 40.823s-3.206-15.973-9.028-21.795C75.15 13.206 67.41 10 59.177 10zM37.382 62.618a30.895 30.895 0 0021.81 9.028h.017C55.206 77.53 48.459 81.4 40.823 81.4 28.57 81.4 18.6 71.43 18.6 59.177c0-7.355 3.705-14.28 9.755-18.396l-.001.042c0 8.234 3.206 15.974 9.028 21.795zm23.822 16.94C55.76 85.002 48.522 88 40.824 88s-14.937-2.998-20.382-8.442S12 66.876 12 59.177s2.998-14.937 8.442-20.381a28.574 28.574 0 019-6.108c-.5 1.836-.83 3.727-.982 5.655-7.317 4.352-11.86 12.33-11.86 20.834C16.6 72.534 27.466 83.4 40.823 83.4s24.224-10.866 24.224-24.223S54.18 34.953 40.823 34.953c-1.053 0-2.102.091-3.142.226a22.07 22.07 0 011.883-4.792 28.894 28.894 0 0121.64 8.409c5.444 5.444 8.442 12.682 8.442 20.38s-2.998 14.937-8.442 20.382zm-23.96-42.304c1.176-.191 2.376-.3 3.58-.3 12.253 0 22.223 9.969 22.223 22.223 0 1.218-.103 2.411-.292 3.577a22.46 22.46 0 01-3.578.293c-12.254 0-22.224-9.97-22.224-22.224 0-1.215.102-2.406.29-3.57zm25.374.128a30.843 30.843 0 00-21.827-9.028c4.003-5.883 10.75-9.754 18.386-9.754C71.43 18.6 81.4 28.57 81.4 40.823c0 7.376-3.701 14.276-9.754 18.392v-.038c0-8.234-3.206-15.974-9.028-21.795zm16.94 23.822a28.572 28.572 0 01-9 6.106c.5-1.839.83-3.732.983-5.662 7.32-4.357 11.86-12.3 11.86-20.825C83.4 27.466 72.533 16.6 59.176 16.6S34.953 27.466 34.953 40.823 45.82 65.047 59.177 65.047c1.053 0 2.102-.09 3.141-.224a22.07 22.07 0 01-1.883 4.793c-8.053.337-15.938-2.71-21.64-8.412-5.443-5.444-8.441-12.682-8.441-20.38s2.998-14.937 8.442-20.382S51.478 12 59.176 12s14.937 2.998 20.382 8.442S88 33.124 88 40.823s-2.998 14.937-8.442 20.381z"/>
    </symbol>
    <symbol fill="none" viewBox="0 0 20 20" id="whatsapp" xmlns="http://www.w3.org/2000/svg">
        <path d="M.004 20l1.352-4.968A9.954 9.954 0 010 10C0 4.477 4.477 0 10 0s10 4.477 10 10-4.477 10-10 10a9.953 9.953 0 01-5.03-1.355L.004 20zM6.391 5.308a.961.961 0 00-.371.1 1.293 1.293 0 00-.294.228c-.12.113-.188.211-.261.306A2.729 2.729 0 004.9 7.62c.002.49.13.967.33 1.413.409.902 1.082 1.857 1.971 2.742.214.213.423.427.648.626a9.448 9.448 0 003.84 2.046l.569.087c.185.01.37-.004.556-.013a1.99 1.99 0 00.833-.231c.131-.067.259-.14.383-.22 0 0 .043-.028.125-.09.135-.1.218-.171.33-.288.083-.086.155-.187.21-.302.078-.163.156-.474.188-.733.024-.198.017-.306.014-.373-.004-.107-.093-.218-.19-.265l-.582-.261s-.87-.379-1.401-.621a.498.498 0 00-.177-.041.482.482 0 00-.378.127v-.002c-.005 0-.072.057-.795.933a.35.35 0 01-.368.13 1.418 1.418 0 01-.191-.066c-.124-.052-.167-.072-.252-.109l-.005-.002a6.012 6.012 0 01-1.57-1c-.126-.11-.243-.23-.363-.346a6.297 6.297 0 01-1.02-1.268l-.059-.095a.923.923 0 01-.102-.205c-.038-.147.061-.265.061-.265s.243-.266.356-.41c.094-.12.182-.244.263-.373.118-.19.155-.385.093-.536-.28-.684-.57-1.365-.868-2.041-.059-.134-.234-.23-.393-.249a4.439 4.439 0 00-.162-.016 3.385 3.385 0 00-.403.005z"
              fill="currentColor"/>
    </symbol>
    <symbol fill="none" viewBox="0 0 24 24" id="whatsapp-dark" xmlns="http://www.w3.org/2000/svg">
        <path d="M12 .48C5.634.48.48 5.635.48 12c0 2.534.806 4.867 2.188 6.768l-1.584 4.176 4.58-1.325a11.397 11.397 0 006.335 1.901c6.365 0 11.52-5.155 11.52-11.52C23.52 5.635 18.364.48 12 .48zm6.134 16.3l-1.239 1.21c-1.295 1.297-4.723-.115-7.747-3.167-3.024-3.024-4.377-6.453-3.168-7.72l1.24-1.237c.46-.461 1.238-.461 1.728 0L10.76 7.68c.634.634.375 1.728-.46 1.987-.577.202-.98.835-.778 1.412.316 1.353 2.073 3.023 3.37 3.34.575.144 1.238-.201 1.41-.777.26-.835 1.354-1.095 1.988-.461l1.814 1.814c.46.49.46 1.268.029 1.786z"
              fill="#000"/>
    </symbol>
    <symbol fill="none" viewBox="0 0 24 24" id="whatsapp-line" xmlns="http://www.w3.org/2000/svg">
        <g clip-path="url(#diclip0_617_2011)" fill="#000">
            <path d="M13.33 18.076c4.05.964 5.475-2.5 4.761-3.793-.286-.516-2.856-1.507-2.981-1.555-1.104-.402-1.512.348-2.277 1.335-1.469-.735-2.454-1.314-3.466-2.96.057-.071.133-.155.19-.219.354-.396 1.017-1.134.565-2.037-.38-.757-.569-1.285-.708-1.672-.403-1.121-.71-1.425-2.098-1.425-1.445 0-2.566 1.899-2.566 3.534 0 3.569 4.798 7.889 8.58 8.792zM7.316 7.25c.3 0 .452.01.528.022.162.343.326 1.059.93 2.173-.094.351-1.429 1.174-.81 2.238 1.265 2.148 2.531 2.893 4.345 3.795 1.208.546 1.594-.443 2.36-1.312.355.144 1.553.674 2.079.94-.047 1.036-1.047 1.992-3.07 1.51-3.472-.829-7.429-4.735-7.429-7.333.001-.988.694-2.033 1.067-2.033z"/>
            <path d="M.083 23.085a.75.75 0 00.723.949c.18 0-.114.046 5.848-1.5 2.427 1.236 4.272 1.197 5.45 1.308 10.555 0 15.725-12.873 8.461-20.363C10.608-6.145-4.899 5.815 1.59 17.606L.083 23.085zM19.371 4.413c.173.316 5.135 4.79 2.372 11.478-1.7 4.12-5.626 6.659-10.024 6.42-3.578-.198-4.504-1.476-5.163-1.301l-4.683 1.22 1.245-4.524a.75.75 0 00-.073-.575C-2.938 6.807 10.591-3.81 19.371 4.413z"/>
        </g>
        <defs>
            <clipPath id="diclip0_617_2011">
                <path fill="#fff" d="M0 0h24v24H0z"/>
            </clipPath>
        </defs>
    </symbol>
    <symbol fill="none" viewBox="0 0 32 33" id="write" xmlns="http://www.w3.org/2000/svg">
        <path d="M18.11 18.502h-4.25v-4.24l12.32-12.32 4.24 4.24-12.31 12.32zm-2.25-2h1.42l10.31-10.32-1.41-1.41-10.32 10.31v1.42z"
              fill="#000"/>
        <path d="M28.56 29.922H2.44V3.802H16v2H4.44v22.12h22.12v-11.56h2v13.56z" fill="#000"/>
        <path d="M7.42 23.362h10v2h-10v-2z" fill="#000"/>
    </symbol>
    <symbol fill="none" viewBox="0 0 24 24" id="youtube" xmlns="http://www.w3.org/2000/svg">
        <g clip-path="url(#dkclip0_301:647)" fill="#000">
            <path d="M10.336 13.936l3.328-1.931-3.328-1.94v3.87z"/>
            <path d="M12 0a12 12 0 100 24 12 12 0 000-24zm6.316 14.124a2.389 2.389 0 01-2.39 2.39H8.074a2.388 2.388 0 01-2.389-2.39V9.876a2.389 2.389 0 012.39-2.39h7.853a2.389 2.389 0 012.389 2.39v4.248z"/>
        </g>
        <defs>
            <clipPath id="dkclip0_301:647">
                <path fill="#fff" d="M0 0h24v24H0z"/>
            </clipPath>
        </defs>
    </symbol>
    <symbol viewBox="0 0 50 50" id="zen" xmlns="http://www.w3.org/2000/svg">
        <path d="M46.894 23.986h.011a.998.998 0 00.996-1.091C46.897 11.852 38.154 3.106 27.11 2.1a1 1 0 00-1.091 1.008c.174 14.676 2.11 20.673 20.875 20.878zm0 2.028c-18.765.205-20.7 6.202-20.874 20.878a1 1 0 001.091 1.008c11.044-1.006 19.787-9.751 20.79-20.795a.999.999 0 00-.262-.769 1.055 1.055 0 00-.745-.322zM22.823 2.105C11.814 3.14 3.099 11.884 2.1 22.897a.999.999 0 00.996 1.09h.012c18.703-.215 20.634-6.209 20.81-20.875a1.003 1.003 0 00-1.095-1.007zM3.107 26.013c-.311-.035-.555.113-.746.321a1.003 1.003 0 00-.262.769c.999 11.013 9.715 19.757 20.724 20.792a1.002 1.002 0 001.094-1.008c-.176-14.665-2.106-20.659-20.81-20.874z"/>
    </symbol>
</svg>